<?xml version="1.0" encoding="utf-8"?>
<!-- Generator: Adobe Illustrator 16.0.0, SVG Export Plug-In . SVG Version: 6.00 Build 0)  -->
<!DOCTYPE svg PUBLIC "-//W3C//DTD SVG 1.1//EN" "http://www.w3.org/Graphics/SVG/1.1/DTD/svg11.dtd">
<svg version="1.1" id="Layer_1" xmlns="http://www.w3.org/2000/svg" xmlns:xlink="http://www.w3.org/1999/xlink" x="0px" y="0px"
	 width="800px" height="220px" viewBox="0 0 800 220" enable-background="new 0 0 800 220" xml:space="preserve">
<g>
	<g>
		<path fill="#FFFFFF" d="M266.465,127.251c-8.981,5.718-22.453,9.186-22.453,24.084c0,8.37,4.489,12.458,9.39,12.458
			c5.716-0.414,13.063-6.124,13.063-9.801V127.251z M267.692,162.569c-4.492,4.894-9.804,8.362-17.763,11.017
			c-4.693,1.428-8.981,1.428-13.066,1.428c-7.554,0-14.082-6.119-14.082-17.552c0-9.396,4.081-18.575,18.775-25.106
			c12.662-6.124,20.42-9.391,24.909-12.659v-10.616c-0.408-4.083-0.812-8.985-3.266-11.435c-2.039-2.245-5.716-3.06-10.208-3.06
			c-3.67,0-8.574,1.225-11.839,3.673c-2.855,2.042-0.816,5.104-0.816,10.004c0,7.352-3.677,11.841-12.248,11.841
			c-3.68,0-6.942-2.448-6.942-6.941c0-5.718,3.262-12.248,9.393-16.738c8.571-6.533,19.598-11.434,33.069-11.434
			c11.438,0,15.105,2.449,18.786,5.716c4.489,4.081,4.896,9.8,4.896,15.309l0.411,32.253v9.796c0,11.034,1.628,14.29,5.302,14.29
			c2.864,0,5.723-1.625,6.542-3.256c0.809-1.23,1.216-1.23,2.035-0.822l2.453,1.639c0.81,0.404,1.224,1.216,0.401,3.258
			c-2.035,3.682-6.939,11.84-18.778,11.84c-7.759,0-14.287-3.666-17.145-12.444H267.692z"/>
		<path fill="#FFFFFF" d="M338.937,71.112c0-6.124-1.224-10.618-4.9-10.618c-2.039,0-4.897,0.41-8.57,1.633l-12.251,3.677
			c-0.812,0.409-1.631,0.409-2.039-0.408l-1.635-4.086c-0.411-0.816,0-1.631,1.23-2.447l46.947-24.498
			c1.224-0.615,2.446-1.227,3.677-1.227c1.22,0,1.631,0.819,1.631,3.268c0,1.634-0.815,33.478-0.815,59.813v8.575
			c0,6.943,0.404,45.729,0.404,48.383c0,10.616,0.822,11.839,12.251,11.839h7.354c1.632,0,2.032,0.609,2.032,1.428v5.104
			c0,1.225-0.4,1.633-2.032,1.633c-1.638,0-29.401-0.615-32.66-0.615c-4.088,0-32.671,0.615-33.897,0.615
			c-1.014,0-1.628-0.408-1.628-1.432v-5.305c0-1.227,0.818-1.428,2.242-1.428h7.959c12.258,0,13.889-0.407,14.293-11.228
			c0.408-5.719,0.408-36.745,0.408-42.459V71.112z"/>
		<path fill="#FFFFFF" d="M421.002,107.652c-3.67,4.491-4.082,13.066-4.082,24.704c0,11.021,2.043,35.926,20.818,35.926
			c5.719,0,19.199-2.449,19.199-32.861c0-18.784-7.355-34.3-20.824-34.3C427.945,101.12,423.455,103.98,421.002,107.652
			 M480.613,126.634c0,18.781-5.715,28.989-13.062,35.935c-8.576,8.563-17.154,13.063-31.438,13.063
			c-14.289,0-23.68-4.5-30.213-12.659c-11.027-13.066-13.064-28.173-13.064-38.79c0-26.535,11.432-50.218,28.988-66.958
			c12.248-11.432,24.494-17.963,35.521-22.043c4.49-1.227,7.344-2.046,8.574-2.046c1.221,0,2.855,1.227,2.855,2.452
			c0,1.631-0.82,3.264-3.27,4.083c-16.326,6.533-40.416,29.803-45.928,58.18l0.607,0.819c5.314-4.9,14.293-8.576,24.502-8.576
			C470.406,90.096,480.613,111.329,480.613,126.634"/>
		<path fill="#FFFFFF" d="M497.156,172.564c-2.049,0-2.863-1.217-0.824-4.486l49.402-74.103h-17.959
			c-11.844,0-15.523,1.633-31.855,22.454c-0.607,0.817-1.42,1.023-2.035,0.614l-2.855-1.633c-0.818-0.613-0.818-1.022-0.41-2.243
			l12.246-28.992c3.674,0.817,7.352,1.634,11.025,2.041c7.346,0.815,11.027,1.229,27.766,1.229h29.805
			c2.039,0,3.262,1.631,2.039,3.264l-51.037,74.917h23.271c5.312,0,15.104-3.671,29.807-21.838c0.812-1.023,1.428-1.023,2.246-0.615
			l2.658,2.042c0.812,0.608,0.812,1.22,0.4,2.039l-14.693,27.76c-3.67-1.221-11.84-1.635-21.232-2.039
			c-9.393-0.41-18.779-0.41-21.637-0.41H497.156z"/>
	</g>
</g>
</svg>
