<?xml version="1.0" encoding="utf-8"?>
<!-- Generator: Adobe Illustrator 16.0.0, SVG Export Plug-In . SVG Version: 6.00 Build 0)  -->
<!DOCTYPE svg PUBLIC "-//W3C//DTD SVG 1.1//EN" "http://www.w3.org/Graphics/SVG/1.1/DTD/svg11.dtd">
<svg version="1.1" xmlns="http://www.w3.org/2000/svg" xmlns:xlink="http://www.w3.org/1999/xlink" x="0px" y="0px"
	 width="576.201px" height="288px" viewBox="0 0 576.201 288" enable-background="new 0 0 576.201 288" xml:space="preserve">
<g id="Gray_Background" display="none">
	
		<rect x="-85.864" y="-61.056" display="inline" fill="#939598" stroke="#939598" stroke-miterlimit="10" width="747.796" height="407.889"/>
</g>
<g id="Innovation__x3E__x3E__Impact_White" display="none">
</g>
<g id="Inn__x3E__x3E__Imp_Purple">
</g>
<g id="Layer_7">
</g>
<g id="U_of_W_White" display="none">
</g>
<g id="U_of_W_Purple">
</g>
<g id="COMOTION" display="none">
	<g display="inline">
		<defs>
			<rect id="SVGID_1_" x="-85.864" y="-60.111" width="747.797" height="407.889"/>
		</defs>
		<clipPath id="SVGID_2_">
			<use xlink:href="#SVGID_1_"  overflow="visible"/>
		</clipPath>
		<path clip-path="url(#SVGID_2_)" fill="#E1C48D" d="M54.851,120.192c-8.36,0-17.501,4.571-18.743,13.389l-2.873,20.635
			c-1.24,8.884,6.531,13.386,14.761,13.386c6.201,0,12.864-2.418,16.194-7.38l-2.026-1.109c-3.002,3.921-8.617,5.94-13.777,5.94
			c-6.988,0-13.583-3.59-12.603-10.837l2.873-20.635c0.979-7.248,8.684-10.84,15.673-10.84c5.224,0,10.188,2.023,12.014,5.941
			l2.418-1.176C66.8,122.482,60.99,120.192,54.851,120.192"/>
		<path clip-path="url(#SVGID_2_)" fill="#E1C48D" d="M123.733,119.667c-8.674,0-18.61,4.336-19.923,13.858l-2.876,20.439
			c-0.47,3.419,0.381,6.489,2.458,8.875c2.817,3.23,7.933,5.159,13.678,5.159c8.978,0,18.727-4.783,19.986-13.92l2.875-20.446
			c0.468-3.395-0.375-6.438-2.435-8.8C134.675,121.596,129.53,119.667,123.733,119.667 M136.591,133.525l-2.87,20.439
			c-1.038,7.344-9.191,10.689-16.324,10.689c-4.874,0-9.118-1.539-11.355-4.116c-1.53-1.762-2.126-3.936-1.768-6.459l2.875-20.446
			c1.064-7.794,9.39-10.632,16.19-10.691c5.118,0,9.326,1.465,11.541,4.021C136.391,128.705,136.968,130.908,136.591,133.525"/>
		<path clip-path="url(#SVGID_2_)" fill="#FFFFFF" d="M217.77,119.919h2.535l-6.688,47.828h-4.157l5.768-41.161l-19.869,34.167
			h-3.794l-10.421-34.444l-5.797,41.438h-4.156l6.692-47.828h2.546h0.446h2.732l10.546,35.121l20.467-35.121h2.642H217.77z
			 M320.923,124.854h15.389l-6.135,43.689h5.76l6.141-43.689h15.428l0.734-5.733h-36.584L320.923,124.854z M535.599,118.326
			l-5.262,37.285l-17.939-37.285h-3.049h-1.154h-2.572l-7.137,51.015h7.371l5.131-36.548l17.539,36.548h3.109h1.586h2.613
			l7.129-51.015H535.599z M288.724,124.311c2.213,2.541,3.119,5.798,2.621,9.433l-2.873,20.441
			c-1.32,9.597-11.452,14.613-20.775,14.613c-6.062,0-11.267-1.984-14.279-5.438c-2.23-2.559-3.146-5.844-2.643-9.503l2.873-20.442
			c1.378-9.993,11.701-14.546,20.712-14.546C280.476,118.868,285.708,120.853,288.724,124.311 M284.906,127.489
			c-2.062-2.387-6.048-3.748-10.933-3.748c-6.488,0.055-14.414,2.71-15.409,9.999l-2.871,20.445c-0.328,2.293,0.204,4.25,1.58,5.834
			c2.086,2.407,6.107,3.839,10.75,3.839c6.802,0,14.563-3.13,15.536-10.005l2.873-20.438
			C286.773,131.036,286.259,129.044,284.906,127.489 M467.972,123.653c2.412,2.767,3.398,6.3,2.857,10.225l-2.873,20.45
			c-1.396,10.146-12.002,15.466-21.76,15.466c-6.348,0-11.824-2.108-15.027-5.778c-2.428-2.786-3.422-6.346-2.881-10.294
			l2.875-20.445c1.459-10.581,12.268-15.405,21.695-15.405C459.259,117.872,464.773,119.979,467.972,123.653 M462.656,128.135
			c-1.846-2.126-5.652-3.398-10.18-3.398c-6.086,0.055-13.512,2.481-14.426,9.142l-2.877,20.45c-0.281,2.018,0.156,3.664,1.35,5.038
			c1.9,2.191,5.639,3.494,10,3.494c6.383,0,13.66-2.859,14.549-9.145l2.877-20.439C464.246,131.168,463.826,129.487,462.656,128.135
			 M386.585,168.94h6.57l7.021-50.152h-6.564L386.585,168.94z"/>
	</g>
</g>
<g id="COMOTION_purple">
	<g>
		<path fill="#FFFFFF" d="M150.995,212.604c0-4.434,4.223-6.65,8.477-6.65c4.224,0,8.477,2.217,8.477,6.65v8.477
			c0,4.434-4.253,6.68-8.477,6.68c-4.253,0-8.477-2.246-8.477-6.68V212.604z M153.481,221.052c0,2.785,2.966,4.193,5.991,4.193
			c2.996,0,5.991-1.408,5.991-4.193v-8.447c0-2.936-3.025-4.193-6.021-4.193c-2.995,0.03-5.961,1.317-5.961,4.193V221.052z"/>
		<polygon fill="#FFFFFF" points="177.838,206.254 184.368,224.616 190.869,206.254 193.504,206.254 185.896,227.462 
			182.811,227.462 175.172,206.254 		"/>
		<path fill="#FFFFFF" d="M216.244,227.462h-2.636l-2.456-6.8h-8.178c-0.779,2.217-1.647,4.583-2.396,6.8h-2.666l7.608-21.207h3.055
			L216.244,227.462z M210.283,218.146c-1.169-3.265-2.037-5.811-3.235-9.196c-1.079,3.116-2.097,6.021-3.235,9.196H210.283z"/>
		<polygon fill="#FFFFFF" points="229.787,208.771 229.787,227.462 227.271,227.462 227.271,208.771 220.472,208.771 
			220.472,206.255 236.587,206.255 236.587,208.771 		"/>
		<rect x="245.218" y="206.255" fill="#FFFFFF" width="2.486" height="21.207"/>
		<path fill="#FFFFFF" d="M257.502,212.604c0-4.434,4.223-6.65,8.477-6.65c4.223,0,8.476,2.217,8.476,6.65v8.477
			c0,4.434-4.253,6.68-8.476,6.68c-4.254,0-8.477-2.246-8.477-6.68V212.604z M259.988,221.052c0,2.785,2.966,4.193,5.991,4.193
			c2.995,0,5.99-1.408,5.99-4.193v-8.447c0-2.936-3.025-4.193-6.021-4.193c-2.995,0.03-5.96,1.317-5.96,4.193V221.052z"/>
		<polygon fill="#FFFFFF" points="297.884,206.254 300.4,206.254 300.4,227.462 297.225,227.462 286.801,210.657 286.801,227.462 
			284.285,227.462 284.285,206.254 286.981,206.254 297.884,223.777 		"/>
		<rect x="362.847" y="206.255" fill="#FFFFFF" width="2.486" height="21.207"/>
		<polygon fill="#FFFFFF" points="378.276,227.462 375.76,227.462 375.76,206.254 378.905,206.254 385.464,221.052 392.025,206.254 
			395.17,206.254 395.17,227.462 392.654,227.462 392.654,210.957 386.542,224.676 384.416,224.676 378.276,210.987 		"/>
		<path fill="#FFFFFF" d="M405.601,206.254h8.088c4.763,0,7.159,3.415,7.159,6.8c0,3.415-2.396,6.771-7.13,6.771h-5.631v7.638
			h-2.486V206.254z M413.689,217.308c3.145,0,4.672-2.127,4.672-4.254c0-2.156-1.557-4.283-4.672-4.283h-5.602v8.537H413.689z"/>
		<path fill="#FFFFFF" d="M444.425,227.462h-2.636l-2.456-6.8h-8.178c-0.779,2.217-1.647,4.583-2.396,6.8h-2.666l7.608-21.207h3.056
			L444.425,227.462z M438.464,218.146c-1.168-3.265-2.037-5.811-3.234-9.196c-1.079,3.116-2.098,6.021-3.236,9.196H438.464z"/>
		<path fill="#FFFFFF" d="M451.65,212.665c0-4.374,4.044-6.71,8.087-6.71c3.056,0,6.141,1.378,7.488,4.254l-2.246,1.078
			c-0.988-1.888-3.176-2.876-5.332-2.876c-2.726,0-5.481,1.438-5.481,4.193v8.537c0,2.756,2.756,4.104,5.481,4.104
			c2.187,0,4.373-0.958,5.332-2.846l2.246,1.048c-1.377,2.876-4.522,4.313-7.578,4.313c-3.984,0-7.997-2.217-7.997-6.619V212.665z"
			/>
		<polygon fill="#FFFFFF" points="483.644,208.771 483.644,227.462 481.127,227.462 481.127,208.771 474.329,208.771 
			474.329,206.255 490.443,206.255 490.443,208.771 		"/>
		<polygon fill="#FFFFFF" points="334.455,217.008 327.611,223.982 322.165,223.982 329.086,217.008 322.165,210.164 
			327.611,210.164 		"/>
		<polygon fill="#FFFFFF" points="343.465,217.008 336.624,223.982 331.175,223.982 338.097,217.008 331.175,210.164 
			336.624,210.164 		"/>
		<rect x="85.623" y="206.255" fill="#FFFFFF" width="2.486" height="21.207"/>
		<polygon fill="#FFFFFF" points="112.134,206.254 114.651,206.254 114.651,227.462 111.476,227.462 101.051,210.657 
			101.051,227.462 98.536,227.462 98.536,206.254 101.231,206.254 112.134,223.777 		"/>
		<polygon fill="#FFFFFF" points="138.679,206.254 141.195,206.254 141.195,227.462 138.02,227.462 127.596,210.657 
			127.596,227.462 125.08,227.462 125.08,206.254 127.776,206.254 138.679,223.777 		"/>
		<path fill="#FFFFFF" d="M92.282,69.7c0,3.219,2.721,5.677,6.075,5.677c3.187,0,6.339-2.357,6.339-5.677V57.055l1.659-1.693h-5.111
			l1.692,1.693V69.7c0,2.257-1.792,4.052-4.049,4.052c-2.289,0-4.315-1.762-4.315-4.052V57.055l1.692-1.693h-5.676l1.693,1.693V69.7
			L92.282,69.7z M114.323,73.252V58.581l10.507,16.365h0.679V57.055l1.694-1.693h-5.113l1.693,1.693v12.447l-8.829-14.141h-4.05
			l1.66,1.693v16.197l-1.66,1.693h5.113L114.323,73.252L114.323,73.252z M132.547,55.361l1.56,1.561v16.464l-1.56,1.56h5.278
			l-1.561-1.56V56.922l1.561-1.561H132.547L132.547,55.361z M147.749,55.361h-5.542l1.594,1.561l5.51,18.023h0.996l5.675-18.023
			l1.594-1.561h-4.714l1.527,1.527l-4.149,13.542l-4.016-13.542L147.749,55.361L147.749,55.361z M173.143,74.945V71.36l-2.091,2.125
			h-5.942v-8.231h4.415l1.561,1.558v-4.579l-1.561,1.559h-4.415v-6.971h5.942l2.091,2.091v-3.551h-11.717l1.527,1.561v16.464
			l-1.527,1.56H173.143L173.143,74.945z M181.938,73.386v-7.568h2.956l4.745,9.127h3.254l-1.527-1.56l-4.383-8.034
			c2.192-0.663,3.686-2.721,3.686-4.581c0-3.318-3.087-5.41-6.341-5.41h-6.073l1.526,1.561v16.464l-1.526,1.56h5.244L181.938,73.386
			L181.938,73.386z M181.938,56.821h2.39c2.091,0,3.753,1.793,3.753,3.916c0,2.026-1.695,3.619-3.753,3.619h-2.39V56.821
			L181.938,56.821z M207.101,69.502c0-1.927-0.897-3.12-1.826-3.753l-3.985-2.887c-1.427-1.027-2.157-2.355-2.157-3.354
			c0-2.056,1.759-2.787,2.821-2.787c0.564,0,0.962,0.232,1.261,0.232l1.727,1.859l1.825-2.722l-3.882-0.73
			c-0.265-0.067-0.432-0.101-0.93-0.101c-3.42,0-4.979,2.92-4.979,4.813c0,1.494,0.764,3.188,2.522,4.48l4.018,2.889
			c1.094,0.764,1.393,1.892,1.393,2.856c0,1.658-1.03,3.453-3.253,3.453c-0.53,0-0.997-0.101-1.361-0.267l-1.86-2.19l-1.692,3.053
			l3.751,0.732c0,0,0.631,0.131,1.161,0.131C204.013,75.21,207.101,73.22,207.101,69.502 M212.774,55.361l1.561,1.561v16.464
			l-1.561,1.56h5.28l-1.561-1.56V56.922l1.561-1.561H212.774L212.774,55.361z M230.535,73.386V56.821h3.716l2.091,2.091v-3.551
			h-13.775v3.551l2.125-2.091h3.683v16.564l-1.526,1.56h5.244L230.535,73.386L230.535,73.386z M240.856,56.922l4.946,8.928v7.536
			l-1.56,1.56h5.277l-1.56-1.56V65.85l5.045-8.896l1.626-1.593h-4.845l1.526,1.527l-4.118,7.335l-3.917-7.335l1.527-1.527h-5.543
			L240.856,56.922L240.856,56.922z M272.812,62.545c-0.718,0-1.847,0.329-2.979,0.992c-1.902,1.131-3.971,3.695-3.971,7.554
			c0,1.932,0.908,4.082,3.475,4.082c1.212,0,2.952-0.8,4.109-1.847c1.82-1.654,2.894-4.495,2.894-6.949
			C276.341,64.088,275.127,62.545,272.812,62.545 M268.097,70.43c0-4.081,2.066-6.288,2.923-6.646
			c0.245-0.109,0.633-0.221,0.91-0.221c1.378,0,2.178,1.049,2.178,3.172c0.055,3.585-1.819,6.84-2.978,7.225
			c-0.224,0.083-0.581,0.192-0.854,0.192C268.73,74.153,268.097,72.499,268.097,70.43 M280.504,63.207l-0.741,0.717l0.082,0.276
			h2.29c-0.359,2.481-0.69,4.632-1.214,8.106c-0.745,5.157-1.378,6.979-1.902,7.419c-0.166,0.165-0.44,0.247-0.689,0.247
			c-0.332,0-0.855-0.247-1.214-0.413c-0.331-0.165-0.606,0.028-0.773,0.195c-0.22,0.247-0.466,0.633-0.466,0.936
			c0,0.552,0.716,0.828,1.184,0.828c0.524,0,1.848-0.44,3.035-1.902c0.934-1.158,2.205-3.832,3.279-10.065
			c0.193-1.16,0.415-2.317,0.885-5.35l2.81-0.276l0.609-0.717h-3.254c0.827-5.103,1.517-6.646,2.702-6.646
			c0.829,0,1.517,0.33,2.125,0.909c0.191,0.194,0.496,0.194,0.771-0.027c0.223-0.192,0.553-0.634,0.553-1.02
			c0.027-0.552-0.716-1.157-1.654-1.157c-1.6,0-3.283,0.938-4.441,2.315c-1.076,1.295-1.792,3.392-2.178,5.626H280.504
			L280.504,63.207z M309.531,74.945l4.481-14.174l4.348,14.174h0.996l5.677-18.023l1.593-1.561h-4.712l1.524,1.527l-4.149,13.542
			l-4.016-13.542l1.526-1.527h-5.543l1.562,1.561l0.396,1.294l-3.751,12.214l-4.017-13.542l1.526-1.527h-5.542l1.594,1.561
			l5.51,18.023H309.531L309.531,74.945z M330.354,73.418l1.427-4.149h6.475l1.359,4.149l-1.525,1.527h5.543l-1.559-1.594
			l-6.108-17.99h-0.997l-6.21,17.99l-1.59,1.594h4.712L330.354,73.418L330.354,73.418z M335.068,59.71l2.689,8.099h-5.479
			L335.068,59.71L335.068,59.71z M356.98,69.502c0-1.927-0.898-3.12-1.825-3.753l-3.983-2.887c-1.429-1.027-2.158-2.355-2.158-3.354
			c0-2.056,1.759-2.787,2.822-2.787c0.562,0,0.961,0.232,1.26,0.232l1.728,1.859l1.826-2.722l-3.886-0.73
			c-0.265-0.067-0.431-0.101-0.928-0.101c-3.42,0-4.979,2.92-4.979,4.813c0,1.494,0.762,3.188,2.521,4.48l4.018,2.889
			c1.096,0.764,1.395,1.892,1.395,2.856c0,1.658-1.029,3.453-3.252,3.453c-0.532,0-0.997-0.101-1.363-0.267l-1.858-2.19
			l-1.692,3.053l3.75,0.732c0,0,0.632,0.131,1.164,0.131C353.892,75.21,356.98,73.22,356.98,69.502 M365.809,65.12h8.231v8.266
			l-1.56,1.56h5.277l-1.56-1.56V56.922l1.56-1.561h-5.277l1.56,1.561v6.738h-8.231v-6.738l1.56-1.561h-5.246l1.529,1.561v16.464
			l-1.529,1.56h5.246l-1.56-1.56V65.12L365.809,65.12z M383.202,55.361l1.56,1.561v16.464l-1.56,1.56h5.276l-1.558-1.56V56.922
			l1.558-1.561H383.202L383.202,55.361z M397.243,73.252V58.581l10.305,16.373l0.882-0.008V57.055l1.693-1.693h-5.111l1.691,1.693
			v12.447l-8.83-14.141h-4.05l1.659,1.693v16.197l-1.659,1.693h5.113L397.243,73.252L397.243,73.252z M426.281,66.05v6.306
			c-0.465,0.467-1.396,1.396-3.22,1.396c-4.349,0-6.538-4.382-6.538-8.599c0-4.248,2.756-8.597,6.538-8.597
			c0.996,0,1.727,0.232,2.392,0.93l2.156,2.124v-3.385c-1.162-0.598-2.323-1.13-4.548-1.13c-5.343,0-9.096,4.78-9.096,10.059
			c0,5.178,3.753,10.057,9.096,10.057c3.021,0,4.315-0.73,5.378-1.427V66.05l1.525-1.56h-5.242L426.281,66.05L426.281,66.05z
			 M440.782,73.386V56.821h3.716l2.093,2.091v-3.551h-13.777v3.551l2.126-2.091h3.685v16.564l-1.526,1.56h5.242L440.782,73.386
			L440.782,73.386z M449.638,65.153c0,4.979,2.818,10.224,7.833,10.224c5.046,0,7.867-5.245,7.867-10.224
			c0-4.98-2.821-10.224-7.867-10.224C452.457,54.93,449.638,60.173,449.638,65.153 M457.471,73.883
			c-3.917,0-5.278-4.681-5.278-8.729c0-4.05,1.361-8.731,5.278-8.731c3.949,0,5.311,4.681,5.311,8.731
			C462.782,69.202,461.42,73.883,457.471,73.883 M472.601,73.252V58.581l10.186,16.365h1V57.055l1.693-1.693h-5.112l1.693,1.693
			v12.447l-8.829-14.141h-4.051l1.66,1.693v16.197l-1.66,1.693h5.113L472.601,73.252L472.601,73.252z"/>
		<path fill="#FFFFFF" d="M54.851,120.192c-8.36,0-17.501,4.571-18.743,13.389l-2.873,20.635
			c-1.24,8.884,6.531,13.386,14.761,13.386c6.201,0,12.864-2.418,16.194-7.38l-2.026-1.109c-3.002,3.921-8.617,5.94-13.777,5.94
			c-6.988,0-13.583-3.59-12.603-10.837l2.873-20.635c0.979-7.248,8.684-10.84,15.673-10.84c5.224,0,10.188,2.023,12.014,5.941
			l2.418-1.176C66.8,122.482,60.99,120.192,54.851,120.192"/>
		<path fill="#FFFFFF" d="M123.733,119.667c-8.674,0-18.61,4.336-19.923,13.858l-2.876,20.439c-0.47,3.419,0.381,6.489,2.458,8.875
			c2.817,3.23,7.933,5.159,13.678,5.159c8.978,0,18.727-4.783,19.986-13.92l2.875-20.446c0.468-3.395-0.375-6.438-2.435-8.8
			C134.675,121.596,129.53,119.667,123.733,119.667 M136.591,133.525l-2.87,20.439c-1.038,7.344-9.191,10.689-16.324,10.689
			c-4.874,0-9.118-1.539-11.355-4.116c-1.53-1.762-2.126-3.936-1.768-6.459l2.875-20.446c1.064-7.794,9.39-10.632,16.19-10.691
			c5.118,0,9.326,1.465,11.541,4.021C136.391,128.705,136.968,130.908,136.591,133.525"/>
		<path fill="#FFFFFF" d="M217.77,119.919h2.535l-6.688,47.828h-4.157l5.768-41.161l-19.869,34.167h-3.794l-10.421-34.444
			l-5.797,41.438h-4.156l6.692-47.828h2.546h0.446h2.732l10.546,35.121l20.467-35.121h2.642H217.77z M320.923,124.854h15.389
			l-6.135,43.689h5.76l6.141-43.689h15.428l0.734-5.733h-36.584L320.923,124.854z M535.599,118.326l-5.262,37.285l-17.939-37.285
			h-3.049h-1.154h-2.572l-7.137,51.015h7.371l5.131-36.548l17.539,36.548h3.109h1.586h2.613l7.129-51.015H535.599z M288.724,124.311
			c2.213,2.541,3.119,5.798,2.621,9.433l-2.873,20.441c-1.32,9.597-11.452,14.613-20.775,14.613c-6.062,0-11.267-1.984-14.279-5.438
			c-2.23-2.559-3.146-5.844-2.643-9.503l2.873-20.442c1.378-9.993,11.701-14.546,20.712-14.546
			C280.476,118.868,285.708,120.853,288.724,124.311 M284.906,127.489c-2.062-2.387-6.048-3.748-10.933-3.748
			c-6.488,0.055-14.414,2.71-15.409,9.999l-2.871,20.445c-0.328,2.293,0.204,4.25,1.58,5.834c2.086,2.407,6.107,3.839,10.75,3.839
			c6.802,0,14.563-3.13,15.536-10.005l2.873-20.438C286.773,131.036,286.259,129.044,284.906,127.489 M467.972,123.653
			c2.412,2.767,3.398,6.3,2.857,10.225l-2.873,20.45c-1.396,10.146-12.002,15.466-21.76,15.466c-6.348,0-11.824-2.108-15.027-5.778
			c-2.428-2.786-3.422-6.346-2.881-10.294l2.875-20.445c1.459-10.581,12.268-15.405,21.695-15.405
			C459.259,117.872,464.773,119.979,467.972,123.653 M462.656,128.135c-1.846-2.126-5.652-3.398-10.18-3.398
			c-6.086,0.055-13.512,2.481-14.426,9.142l-2.877,20.45c-0.281,2.018,0.156,3.664,1.35,5.038c1.9,2.191,5.639,3.494,10,3.494
			c6.383,0,13.66-2.859,14.549-9.145l2.877-20.439C464.246,131.168,463.826,129.487,462.656,128.135 M386.585,168.94h6.57
			l7.021-50.152h-6.564L386.585,168.94z"/>
	</g>
</g>
<g id="W" display="none">
</g>
</svg>
