<?xml version="1.0" encoding="utf-8"?>
<!-- Generator: Adobe Illustrator 16.0.0, SVG Export Plug-In . SVG Version: 6.00 Build 0)  -->
<!DOCTYPE svg PUBLIC "-//W3C//DTD SVG 1.1//EN" "http://www.w3.org/Graphics/SVG/1.1/DTD/svg11.dtd">
<svg version="1.1" id="Layer_1" xmlns="http://www.w3.org/2000/svg" xmlns:xlink="http://www.w3.org/1999/xlink" x="0px" y="0px"
	 width="12.333px" height="12.5px" viewBox="0 0 12.333 12.5" enable-background="new 0 0 12.333 12.5" xml:space="preserve">
<path id="Facebook__x28_alt_x29_" fill="#ED1B78" d="M11.784,2.623c0-0.984-0.889-1.873-1.874-1.873H2.418
	c-0.984,0-1.872,0.889-1.872,1.873v7.492c0,0.983,0.888,1.873,1.872,1.873h3.746V7.742H4.791V5.87h1.374V5.14
	c0-1.258,0.945-2.392,2.107-2.392h1.514v1.873H8.272c-0.166,0-0.359,0.201-0.359,0.503V5.87h1.873v1.873H7.913v4.246H9.91
	c0.985,0,1.874-0.89,1.874-1.873V2.623z"/>
</svg>
