<?xml version="1.0" encoding="utf-8"?>
<!-- Generator: Adobe Illustrator 16.0.0, SVG Export Plug-In . SVG Version: 6.00 Build 0)  -->
<!DOCTYPE svg PUBLIC "-//W3C//DTD SVG 1.1//EN" "http://www.w3.org/Graphics/SVG/1.1/DTD/svg11.dtd">
<svg version="1.1" id="Layer_1" xmlns="http://www.w3.org/2000/svg" xmlns:xlink="http://www.w3.org/1999/xlink" x="0px" y="0px"
	 width="13px" height="10px" viewBox="0 0 13 10" enable-background="new 0 0 13 10" xml:space="preserve">
<path fill="#ED1B78" d="M0.713,8.365V1.54c0-0.055,0.009-0.12,0.026-0.196l4.87,4.88c0.272,0.272,0.606,0.408,1.003,0.408
	c0.389,0,0.721-0.136,0.992-0.408l4.881-4.88c0.011,0.069,0.016,0.134,0.016,0.196v6.825c0,0.256-0.091,0.475-0.272,0.656
	c-0.181,0.184-0.397,0.273-0.653,0.273H1.649c-0.255,0-0.475-0.09-0.659-0.273C0.805,8.839,0.713,8.62,0.713,8.365L0.713,8.365z
	 M1.38,0.651C1.47,0.624,1.56,0.61,1.649,0.61h9.927c0.083,0,0.168,0.014,0.259,0.042L6.928,5.552
	C6.841,5.638,6.735,5.681,6.607,5.681c-0.127,0-0.234-0.043-0.32-0.129L1.38,0.651z"/>
</svg>
