<?xml version="1.0" encoding="utf-8"?>
<!-- Generator: Adobe Illustrator 16.0.0, SVG Export Plug-In . SVG Version: 6.00 Build 0)  -->
<!DOCTYPE svg PUBLIC "-//W3C//DTD SVG 1.1//EN" "http://www.w3.org/Graphics/SVG/1.1/DTD/svg11.dtd">
<svg version="1.1" id="Layer_1" xmlns="http://www.w3.org/2000/svg" xmlns:xlink="http://www.w3.org/1999/xlink" x="0px" y="0px"
	 width="12.25px" height="8.562px" viewBox="0 0 12.25 8.562" enable-background="new 0 0 12.25 8.562" xml:space="preserve">
<path id="Twitter__x28_alt_x29_" fill="#ED1B78" d="M10.477,3.815c0.631-0.052,1.059-0.339,1.225-0.728
	c-0.229,0.14-0.935,0.292-1.324,0.146c-0.021-0.091-0.041-0.179-0.062-0.257c-0.298-1.093-1.317-1.972-2.384-1.866
	c0.086-0.035,0.174-0.068,0.261-0.097C8.311,0.972,9,0.86,8.892,0.617C8.8,0.403,7.958,0.779,7.799,0.828
	c0.209-0.079,0.556-0.214,0.593-0.454c-0.32,0.043-0.635,0.195-0.879,0.416C7.602,0.695,7.667,0.58,7.682,0.456
	C6.827,1.001,6.327,2.103,5.923,3.171c-0.317-0.308-0.599-0.55-0.851-0.685C4.364,2.107,3.518,1.711,2.188,1.218
	C2.148,1.658,2.406,2.242,3.15,2.631C2.989,2.609,2.694,2.658,2.458,2.714c0.097,0.503,0.41,0.919,1.259,1.119
	c-0.388,0.025-0.588,0.114-0.77,0.305C3.123,4.487,3.555,4.9,4.331,4.815c-0.863,0.372-0.353,1.06,0.35,0.958
	C3.483,7.009,1.596,6.918,0.512,5.884c2.83,3.856,8.98,2.28,9.897-1.434c0.688,0.006,1.09-0.238,1.341-0.506
	C11.354,4.011,10.781,3.941,10.477,3.815z"/>
</svg>
