<?xml version="1.0" encoding="utf-8"?>
<!-- Generator: Adobe Illustrator 16.0.0, SVG Export Plug-In . SVG Version: 6.00 Build 0)  -->
<!DOCTYPE svg PUBLIC "-//W3C//DTD SVG 1.1//EN" "http://www.w3.org/Graphics/SVG/1.1/DTD/svg11.dtd">
<svg version="1.1" id="Layer_2" xmlns="http://www.w3.org/2000/svg" xmlns:xlink="http://www.w3.org/1999/xlink" x="0px" y="0px"
	 width="142.5px" height="144.302px" viewBox="0 0 142.5 144.302" enable-background="new 0 0 142.5 144.302" xml:space="preserve">
<path fill="#252527" d="M137.325,68.029c1.396,1.701-25.379,14.555-25.379,14.555s10.917,3.541,10.667,5.833
	s-25.499,25.834-31.987,25.676c0,0-14.35,3.678-14.167-10s0.653-48.676,0.653-48.676l13.667-1.833l17.295-10.493l-3.8-4.892
	l-27.699-0.282l0.1-11.195c5-2.481,7.5-7.094,7.5-12.388C84.174,6.417,78.39,0,70.174,0s-15,6.417-15,14.333
	c0,5.632,4.096,10.578,9,12.919v11.352H35.945l-2.833,4.156l21,12.703l10.667-0.441c0,0,0.136,29.077,0,48.906
	c-0.113,16.556-13.341,10.267-18,8.328c-17.942-7.467-23.106-16.4-26.167-20.003c0,0,0.616-5.966,5.582-6.169
	c0,0-20.152-16.575-21.784-17.622c0,0-6.632,25.287-3.632,33.122c0,0,2.75-4.586,5.667-4.334c1.026,0.09,30.817,34.282,54.167,35
	c3.372,0.104,11,8.166,11,8.166s7.068-9.099,8.5-9c29.122,2.005,55.353-35.514,55.332-35.5c1.751-0.587,6.5,5.167,6.5,5.167
	S144.863,77.208,137.325,68.029z M70.727,18.833c-2.509,0-4.542-2.033-4.542-4.541c0-2.509,2.033-4.542,4.542-4.542
	c2.508,0,4.447,2.033,4.447,4.542C75.174,16.799,73.235,18.833,70.727,18.833z"/>
</svg>
