<?xml version="1.0" encoding="utf-8"?>
<!-- Generator: Adobe Illustrator 16.0.0, SVG Export Plug-In . SVG Version: 6.00 Build 0)  -->
<!DOCTYPE svg PUBLIC "-//W3C//DTD SVG 1.1//EN" "http://www.w3.org/Graphics/SVG/1.1/DTD/svg11.dtd">
<svg version="1.1" id="Layer_1" xmlns="http://www.w3.org/2000/svg" xmlns:xlink="http://www.w3.org/1999/xlink" x="0px" y="0px"
	 width="66.547px" height="18.666px" viewBox="0 0 66.547 18.666" enable-background="new 0 0 66.547 18.666" xml:space="preserve">
<g>
	<path fill="#ED1B78" d="M0,18.666V9.058l3.471-0.489c1.13-0.159,2.076,0.077,2.837,0.706c0.761,0.63,1.142,1.521,1.142,2.673v1.729
		c0,1.157-0.38,2.156-1.142,2.998c-0.761,0.842-1.707,1.343-2.837,1.502L0,18.666z M2.237,10.459v6.176l1.082-0.153
		c0.594-0.083,1.058-0.353,1.392-0.807c0.334-0.453,0.501-1.015,0.501-1.685v-1.74c0-0.664-0.167-1.176-0.501-1.533
		c-0.334-0.358-0.798-0.495-1.392-0.411L2.237,10.459z"/>
	<path fill="#ED1B78" d="M16.253,6.768v6.295c0,1.096-0.364,1.995-1.092,2.7s-1.682,1.142-2.86,1.308
		c-1.192,0.168-2.153,0.002-2.883-0.498s-1.095-1.297-1.095-2.393V7.885l2.236-0.315v6.295c0,0.59,0.152,1.005,0.456,1.245
		c0.304,0.242,0.732,0.322,1.287,0.244c0.55-0.076,0.973-0.277,1.27-0.6c0.297-0.324,0.445-0.783,0.445-1.377V7.083L16.253,6.768z"
		/>
	<path fill="#ED1B78" d="M17.259,16.233V6.626l3.299-0.465c1.192-0.168,2.123-0.078,2.792,0.271
		c0.668,0.347,1.002,0.959,1.002,1.834c0,0.458-0.107,0.88-0.323,1.267s-0.548,0.702-0.997,0.945
		c0.563,0.049,0.979,0.246,1.248,0.593c0.268,0.349,0.402,0.771,0.402,1.273c0,0.937-0.314,1.69-0.943,2.259
		c-0.629,0.567-1.531,0.934-2.706,1.1L17.259,16.233z M19.496,10.316l1.108-0.156c0.506-0.08,0.884-0.231,1.135-0.454
		c0.25-0.222,0.376-0.514,0.376-0.874c0-0.409-0.128-0.689-0.383-0.841c-0.255-0.15-0.646-0.189-1.174-0.114l-1.062,0.149V10.316z
		 M19.496,11.793v2.408l1.537-0.217c0.475-0.066,0.832-0.209,1.069-0.43c0.238-0.221,0.356-0.524,0.356-0.912
		c0-0.417-0.102-0.719-0.307-0.902c-0.205-0.186-0.536-0.246-0.993-0.182L19.496,11.793z"/>
	<path fill="#ED1B78" d="M33.493,13.946l-2.224,0.312v-3.866l-3.556,0.501v3.867l-2.236,0.314V5.468l2.236-0.315v4.025l3.556-0.501
		V4.651l2.224-0.313V13.946z"/>
	<path fill="#ED1B78" d="M39.77,11.193l-3.027,0.426l-0.542,1.944l-2.243,0.315l3.101-10.044l2.395-0.337l3.108,9.169l-2.243,0.315
		L39.77,11.193z M37.236,9.835l2.039-0.288l-1.003-3.296l-0.039,0.005L37.236,9.835z"/>
	<path fill="#ED1B78" d="M50.191,8.22l0.013,0.038c-0.044,1.132-0.377,2.04-0.999,2.721c-0.623,0.681-1.525,1.105-2.709,1.272
		c-1.188,0.167-2.153-0.062-2.896-0.688c-0.744-0.625-1.115-1.521-1.115-2.687V6.872c0-1.161,0.357-2.158,1.072-2.991
		c0.715-0.833,1.645-1.331,2.788-1.492c1.214-0.171,2.142,0.004,2.784,0.524c0.643,0.521,1.006,1.339,1.089,2.453l-0.014,0.041
		l-2.171,0.306c-0.03-0.62-0.17-1.065-0.418-1.334c-0.249-0.268-0.673-0.36-1.271-0.276c-0.506,0.071-0.904,0.332-1.194,0.779
		c-0.29,0.448-0.436,1.002-0.436,1.662v2.019c0,0.664,0.158,1.179,0.475,1.543c0.316,0.365,0.753,0.507,1.307,0.429
		c0.537-0.076,0.918-0.272,1.142-0.589c0.225-0.318,0.352-0.791,0.383-1.42L50.191,8.22z"/>
	<path fill="#ED1B78" d="M54.199,7.174L53.17,7.319v3.854l-2.236,0.315V1.88l2.236-0.315v3.762l0.758-0.107l2.111-4.059l2.771-0.391
		l-2.975,4.768l3.232,4.803l-2.719,0.383L54.199,7.174z"/>
	<path fill="#ED1B78" d="M64.316,7.055c0-0.339-0.112-0.585-0.336-0.738c-0.225-0.153-0.628-0.292-1.209-0.417
		c-1.213-0.212-2.113-0.495-2.697-0.851c-0.586-0.356-0.878-0.946-0.878-1.773c0-0.805,0.349-1.505,1.046-2.101
		s1.582-0.968,2.656-1.12c1.063-0.15,1.936,0,2.615,0.453s1.008,1.11,0.986,1.976l-0.014,0.042l-2.164,0.305
		c0-0.383-0.129-0.676-0.389-0.879c-0.26-0.204-0.618-0.272-1.076-0.208c-0.447,0.063-0.8,0.211-1.055,0.446
		c-0.256,0.233-0.383,0.495-0.383,0.786c0,0.281,0.129,0.489,0.386,0.621c0.257,0.134,0.74,0.278,1.448,0.433
		c1.091,0.171,1.912,0.456,2.465,0.854c0.551,0.397,0.828,1.011,0.828,1.842c0,0.845-0.329,1.552-0.986,2.123
		c-0.658,0.57-1.53,0.931-2.617,1.084c-1.09,0.154-2.034,0.012-2.83-0.422c-0.797-0.436-1.184-1.17-1.162-2.203l0.014-0.041
		l2.171-0.306c0,0.554,0.149,0.929,0.448,1.124c0.299,0.195,0.753,0.25,1.359,0.165c0.462-0.065,0.807-0.206,1.033-0.423
		C64.203,7.612,64.316,7.354,64.316,7.055z"/>
</g>
</svg>
