<?xml version="1.0" encoding="utf-8"?>
<!-- Generator: Adobe Illustrator 16.0.0, SVG Export Plug-In . SVG Version: 6.00 Build 0)  -->
<!DOCTYPE svg PUBLIC "-//W3C//DTD SVG 1.1//EN" "http://www.w3.org/Graphics/SVG/1.1/DTD/svg11.dtd">
<svg version="1.1" id="Layer_1" xmlns="http://www.w3.org/2000/svg" xmlns:xlink="http://www.w3.org/1999/xlink" x="0px" y="0px"
	 width="612px" height="36.122px" viewBox="0 0 612 36.122" enable-background="new 0 0 612 36.122" xml:space="preserve">
<path fill="#F3B421" d="M1,36.122h611.682V24.427c-5.516-1.008-11.276-1.573-17.469-1.696c-7.958-0.158-15.92,0.191-23.883,0.053
	c-8.253-0.144-19.599-0.317-26.158-4.937c-5.456-3.842-39.712-11.585-48.365-11.226c-18.842,0.779-32.221,6.853-51.029,8.089
	c-9.038,0.594-18.085,0.959-27.09-0.12c-8.131-0.974-15.646-3.787-22.892-6.835c-13.182-5.542-25.124-8.022-40.017-6.271
	c-16.038,1.885-30.928,7.479-47.33,7.53c-17.33,0.052-33.252-7.867-50.479-8.846c-16.933-0.962-33.335,2.348-49.52,6.065
	c-16.997,3.902-33.942,8.096-51.771,7.774c-16.149-0.291-30.686-7.022-47.098-4.402c-17.375,2.775-33.293,9.258-50.055,13.684
	c-16.105,4.252-32.856,3.732-49.534,4.539C6.972,27.975,3.973,28.208,1,28.53V36.122z"/>
</svg>
