<?xml version="1.0" encoding="utf-8"?>
<!-- Generator: Adobe Illustrator 16.0.0, SVG Export Plug-In . SVG Version: 6.00 Build 0)  -->
<!DOCTYPE svg PUBLIC "-//W3C//DTD SVG 1.1//EN" "http://www.w3.org/Graphics/SVG/1.1/DTD/svg11.dtd">
<svg version="1.1" id="Layer_1" xmlns="http://www.w3.org/2000/svg" xmlns:xlink="http://www.w3.org/1999/xlink" x="0px" y="0px"
	 width="612px" height="98.721px" viewBox="0 0 612 98.721" enable-background="new 0 0 612 98.721" xml:space="preserve">
<g id="Layer_2">
</g>
<path fill="#FFFFFF" d="M612,98.721V64.672c-0.038-0.019-0.073-0.033-0.095-0.033s-0.123-0.048-0.228-0.104
	c-0.197-0.11-0.336-0.138-1.219-0.224c-0.449-0.045-0.45-0.045-0.496-0.146c-0.056-0.126-0.189-0.139-0.342-0.028
	c-0.089,0.062-0.146,0.071-0.441,0.062c-0.34-0.011-0.341-0.011-0.345-0.101c-0.004-0.049-0.008-0.11-0.008-0.135
	c-0.007-0.083-0.092-0.047-0.175,0.076l-0.081,0.119l-0.658-0.016c-0.363-0.009-0.674-0.014-0.69-0.011
	c-0.017,0.002-0.106,0.012-0.205,0.021c-0.13,0.016-0.188,0.005-0.24-0.038c-0.077-0.062-0.271-0.075-0.317-0.021
	c-0.043,0.05-0.27,0.097-0.696,0.144c-0.199,0.021-0.383,0.06-0.403,0.079c-0.028,0.028-0.04,0.179-0.04,0.577
	c0,0.296-0.015,0.567-0.029,0.604c-0.021,0.05-0.069,0.065-0.194,0.068c-0.172,0.005-0.306,0.046-0.337,0.105
	c-0.009,0.02-0.291,5.179-0.369,5.179c-0.02,0-0.047-0.018-0.065-0.04c-0.044-0.052-0.422-0.023-0.474,0.032
	c-0.021,0.028-0.045,0.273-0.061,0.7c-0.071,2.023-0.122,3.538-0.134,4.078c-0.011,0.336-0.026,0.879-0.036,1.205l-0.023,0.592
	l-0.124,0.038c-0.067,0.021-0.146,0.057-0.168,0.079c-0.021,0.021-0.099,0.047-0.169,0.055l-0.124,0.013l-0.02-0.378
	c-0.011-0.208,0.166-2.904,0.223-2.985c0.028-0.037,0.026-0.068,0-0.135c-0.021-0.046-0.049-0.105-0.06-0.138
	c-0.012-0.029-0.062-0.067-0.109-0.085c-0.048-0.02-0.112-0.045-0.14-0.062c-0.032-0.02-0.062-0.018-0.071,0.004
	c-0.037,0.07-0.113,0.032-0.146-0.072c-0.021-0.063-0.052-0.104-0.072-0.091c-0.021,0.01-0.04-0.007-0.04-0.032
	c0-0.065,0.157-0.272,0.205-0.272c0.021,0,0.04-0.029,0.04-0.066c0-0.07-0.058-0.111-0.155-0.111c-0.05,0-0.061-0.03-0.064-0.225
	c-0.01-0.314,0.2-3.358,0.192-3.651c-0.003-0.147-0.021-0.289-0.038-0.315c-0.049-0.066-0.159-0.057-0.249,0.025
	c-0.131,0.122-0.165,0.097-0.188-0.145c-0.013-0.118-0.013-0.325-0.001-0.46c0.03-0.392,0.028-0.653-0.006-0.696
	c-0.033-0.039-0.354-0.107-0.509-0.106c-0.046,0.001-0.113-0.021-0.149-0.049c-0.038-0.027-0.241-0.064-0.479-0.089
	c-0.228-0.022-0.514-0.051-0.639-0.062c-0.168-0.019-0.468-0.193-0.565-0.177c-0.064,0.014-0.137,0.039-0.154,0.06
	c-0.035,0.034-0.479,0.019-0.53-0.021c-0.016-0.011-0.013-0.076,0.004-0.146c0.062-0.262-0.06-0.268-0.292-0.015l-0.171,0.187
	l-0.312-0.038c-0.172-0.021-0.444-0.028-0.609-0.02c-0.282,0.021-0.302,0.019-0.374-0.062c-0.073-0.082-0.078-0.083-0.163-0.023
	c-0.171,0.119-0.262,0.041-0.209-0.182c0.042-0.185,0.017-0.225-0.142-0.225c-0.17,0-0.383,0.175-0.434,0.354
	c-0.019,0.066-0.053,0.132-0.076,0.147c-0.036,0.021-0.56,0.105-0.664,0.105c-0.094,0-0.113,0.106-0.123,0.613
	c-0.006,0.394-0.019,0.535-0.057,0.6c-0.033,0.062-0.062,0.078-0.095,0.062c-0.079-0.044-0.306-0.032-0.348,0.018
	c-0.039,0.044-0.188,1.69-0.239,2.947c-0.02,0.425-0.034,0.944-0.038,1.15l-0.005,0.379l-0.148,0.036
	c-0.083,0.021-0.166,0.067-0.191,0.107c-0.021,0.039-0.101,0.088-0.172,0.108c-0.108,0.031-0.129,0.053-0.146,0.162
	c-0.022,0.133-0.116,1.546-0.149,2.354c-0.004,0.084-0.007,0.178-0.011,0.271l-2.309,0.7l-0.16,3.105
	c-0.18-0.001-0.396-0.001-0.66,0l-1.356,0.005c0,0-0.04-3.587-0.052-3.566c-0.03,0.057-0.356,0.021-0.447-0.047
	c-0.06-0.044-0.085-0.045-0.143-0.008c-0.14,0.087-0.157,0.021-0.146-0.553c0.014-0.438,0.007-0.522-0.033-0.562
	c-0.046-0.044-0.357-0.086-0.964-0.131c-0.229-0.017-0.269-0.027-0.321-0.105c-0.074-0.107-0.153-0.113-0.197-0.019
	c-0.039,0.089-0.217,0.101-0.275,0.018c-0.027-0.043-0.105-0.058-0.328-0.061c-0.161-0.002-0.567-0.014-0.902-0.022l-0.609-0.022
	l-0.016-0.217l-0.016-0.216l-1.531-0.013c-1.063-0.008-1.55,0.002-1.593,0.028c-0.037,0.023-0.062,0.076-0.062,0.128
	c0,0.146-0.142,0.189-0.535,0.17c-0.453-0.021-0.455-0.021-0.975,0.023c-0.251,0.021-0.537,0.067-0.635,0.101
	c-0.232,0.078-0.267,0.149-0.267,0.603c0,0.188-0.012,0.351-0.025,0.36c-0.018,0.013-0.162,0.021-0.328,0.022
	c-0.164,0.001-0.416,0.011-0.561,0.021l-0.26,0.02l-0.009,0.491c-0.006,0.27-0.019,0.503-0.025,0.519
	c-0.008,0.018-0.825,0.029-1.815,0.029c-2.031,0-2.196,0.013-2.605,0.206c-0.023,0.01-0.04-0.014-0.04-0.059
	c0-0.128-0.093-0.147-0.646-0.147c-0.47,0-0.536,0.008-0.576,0.062c-0.048,0.064-0.083,0.485-0.103,1.181
	c-0.004,0.179-0.018,0.533-0.027,0.793c-0.021,0.45-0.025,0.472-0.111,0.576c-0.089,0.108-0.09,0.112-0.031,0.175
	c0.08,0.086,0.104,0.311,0.032,0.311c-0.029,0-0.082-0.028-0.118-0.062c-0.085-0.082-0.126-0.412-0.089-0.727
	c0.014-0.127,0.046-1.991,0.05-2.151c0.006-0.25,0.019-0.312,0.079-0.396c0.04-0.056,0.082-0.153,0.094-0.216
	c0.014-0.064,0.051-0.158,0.083-0.209c0.082-0.123,0.056-0.191-0.087-0.205l-0.115-0.012l0.007-0.377
	c0.003-0.209,0.066-1.524,0.143-1.617c0.044-0.056,0.079-0.137,0.079-0.185c0-0.047,0.021-0.11,0.045-0.144
	c0.064-0.085,0.101-0.57,0.044-0.594c-0.022-0.012-0.233-0.034-0.47-0.058c-0.142-0.013-0.354-0.032-0.565-0.053
	c-0.172-2.061-0.317-3.899-0.406-5.188c-0.387-5.648,0.058-11.778,0.058-11.783c0.376-2.257,1.404-8.368,1.778-10.457l0.386-0.036
	c0.818-0.061,2.192-0.232,2.469-0.694c0.025-0.037,0.041-0.079,0.046-0.119c0.003-0.003,0.003-0.005,0.003-0.01
	c0.01-0.094-0.029-0.193-0.125-0.254c-0.119-0.079-0.279-0.162-0.477-0.232l0.215-0.709l0.008-0.015c-0.002,0-0.002,0-0.003-0.002
	l0.003-0.016h0.167c0,0,1.032-0.079,1.712-0.302c0.152-0.057,0.155-0.271,0.003-0.32c-0.328-0.109-0.812-0.266-1.261-0.401v-0.219
	c0-0.167-0.137-0.303-0.305-0.303h-0.692l0.079-0.661h0.02c0.123,0,0.154-0.173,0.039-0.217l-3.778-1.457v-0.333
	c0.114-0.065,0.372-0.23,0.568-0.484c0.021-0.028,0.021-0.07,0.003-0.099c-0.073-0.105-0.286-0.354-0.73-0.524v-0.233
	c0-0.089-0.069-0.157-0.156-0.157h-1.116v-0.766h-0.201l-0.375-5.544h-0.162l-0.372,5.544h-0.199v0.766h-1.119
	c-0.086,0-0.156,0.068-0.156,0.157v0.242c-0.245,0.107-0.608,0.296-0.736,0.513c-0.019,0.028-0.017,0.068,0.009,0.099
	c0.081,0.094,0.302,0.322,0.567,0.458v0.409l-3.708,1.387h-0.016v0.004l-0.059,0.022c-0.114,0.043-0.083,0.217,0.039,0.217h0.047
	l0.083,0.661h-0.728c-0.167,0-0.303,0.136-0.303,0.303v0.104c-0.33,0.081-0.771,0.2-1.262,0.362
	c-0.145,0.048-0.153,0.25-0.015,0.313c0.282,0.129,0.833,0.3,1.896,0.438l0.269,0.817c-0.162,0.062-0.335,0.134-0.486,0.204
	c-0.204,0.092-0.219,0.379-0.021,0.487c0.057,0.03,0.121,0.065,0.189,0.098c0.018,0.006,0.028,0.011,0.043,0.02
	c0.009,0.002,0.016,0.005,0.022,0.011c0.214,0.096,0.479,0.184,0.788,0.226h0.127c0.364,0.062,0.853,0.127,1.494,0.175
	c0.127,1.12,0.84,7.358,1.197,10.214c0.034,0.271,0.064,0.512,0.093,0.714c0.1,0.739,0.085,1.56,0.046,2.387v0.003
	c0.033,1.167,0.06,2.604,0.054,4.216c-0.103,1.008-0.448,4.428-0.888,8.769c-0.766,0.001-1.464,0.017-1.489,0.047
	c-0.019,0.021-0.034,0.095-0.04,0.161c-0.009,0.104,0.005,0.131,0.078,0.174c0.074,0.044,0.086,0.064,0.067,0.159
	c-0.033,0.194-0.062,0.211-0.324,0.188c-0.262-0.025-0.503,0.021-0.661,0.137c-0.056,0.039-0.155,0.183-0.23,0.329
	c-0.105,0.201-0.204,2.654-0.242,2.654s-0.218,4.051-0.218,4.051l-0.511,0.01l-0.513,0.011v7.912
	c-0.097,0.005-0.809,0.024-0.809,0.024l-0.033,1.077h-0.563c0,0-0.025-2.936-0.067-2.973c-0.034-0.028-0.259-0.05-0.723-0.061
	c-0.371-0.009-0.691-0.022-0.714-0.03c-0.024-0.008-0.045-0.104-0.053-0.24l-0.008-0.228l-1.348-0.004
	c-0.742-0.001-1.363,0.008-1.381,0.021c-0.021,0.017-0.35,0.046-0.732,0.069c-0.383,0.022-0.729,0.046-0.765,0.049
	c-0.056,0.005-0.07,0.04-0.083,0.167l-0.018,0.16l-0.141,0.004c-0.087,0.002-0.146-0.014-0.158-0.043
	c-0.008-0.024-0.047-0.047-0.082-0.047c-0.038,0-0.093-0.043-0.123-0.094c-0.047-0.074-0.076-0.089-0.147-0.073
	c-0.055,0.012-0.136-0.002-0.187-0.031c-0.049-0.025-1.598-1.602-1.639-1.602c-0.059,0-1.167,1.258-1.341,1.455
	c-0.287,0.328-0.316,0.352-0.38,0.31c-0.104-0.069-0.166-0.021-0.189,0.145c-0.017,0.107-0.044,0.156-0.104,0.188
	c-0.101,0.05-0.104,0.081-0.016,0.2c0.052,0.075,0.064,0.146,0.064,0.404v0.312l-0.16,0.188c-0.011,0.012-0.018,0.02-0.026,0.03
	c-0.66,0.117-1.321,0.204-1.981,0.232c-0.363-0.286-1.811,0.466-1.811,0.466c-1.907,0.429-3.815,0.714-5.708,1.42
	c-0.611,0.362-1.242,0.522-1.882,0.546c-0.229-0.038-0.27-0.13-0.272-0.355l-0.002-0.205l-0.229-0.066
	c-0.125-0.036-0.272-0.063-0.328-0.064c-0.139-0.001-0.255-0.078-0.382-0.254c-0.122-0.169-0.244-0.214-0.781-0.283
	c-0.429-0.056-0.496-0.031-0.525,0.179c-0.019,0.14-0.04,0.355-0.054,0.522c-1.75-0.694-3.474-1.89-4.972-2.513
	c-2.651-0.417-4.969,0.188-7.913,0.182c-0.233,0.056-0.47,0.097-0.705,0.139c-0.006-0.042-0.012-0.081-0.015-0.13
	c-0.008-0.148-0.022-0.338-0.036-0.42c-0.013-0.105,0.251-10.72,0.318-10.84c0.064-0.119,0.023-0.282-0.095-0.368
	c-0.077-0.058-0.175-0.074-0.479-0.093c-0.452-0.026-0.962-0.028-1.029-0.002c-0.067,0.023-0.227-0.027-0.24-0.08
	c-0.008-0.023,0.021-0.081,0.065-0.129l0.079-0.088l-0.101-0.07c-0.09-0.062-0.229-0.077-1.188-0.136
	c-0.597-0.034-1.107-0.056-1.137-0.042c-0.032,0.016-0.047,0.048-0.035,0.081c0.01,0.03,0.01,0.097,0,0.145
	c-0.017,0.078-0.033,0.088-0.176,0.087c-0.086,0-0.204-0.015-0.263-0.032c-0.061-0.019-0.159-0.043-0.225-0.056
	c-0.114-0.024-0.114-0.025-0.068-0.11c0.031-0.057,0.035-0.094,0.017-0.107c-0.045-0.032-0.644,0.056-0.69,0.101
	c-0.021,0.021-0.04,0.068-0.04,0.104c0,0.089-0.08,0.128-0.153,0.071c-0.076-0.057-0.1-0.053-0.258,0.036
	c-0.104,0.059-0.173,0.07-0.271,0.055c-0.072-0.012-0.144-0.007-0.159,0.011c-0.015,0.017-0.079,0.05-0.142,0.072
	c-0.071,0.026-0.131,0.079-0.156,0.142c-0.063,0.148-0.269,7.306-0.308,8.988c-0.03,1.285-0.075,2.362-0.105,2.496
	c-0.014,0.06-0.054,0.108-0.104,0.132c-0.069,0.027-0.096,0.02-0.163-0.062c-0.073-0.088-0.081-0.118-0.073-0.344
	c0.004-0.174-0.006-0.26-0.036-0.288c-0.024-0.028-0.312-0.044-0.893-0.051l-0.853-0.01l-0.008-0.932l-0.008-0.929l-0.104-0.05
	c-0.057-0.027-0.783,0.056-0.905-0.028c-0.062-0.044-0.161-0.061-0.377-0.061h-0.293l0.007-0.396
	c0.004-0.261-0.005-0.409-0.028-0.438c-0.023-0.027-0.271-0.042-0.813-0.043l-0.781-0.003l-0.073,0.105
	c-0.064,0.093-0.061,2.19-0.074,2.295c-0.025,0.196-1.108,0.128-1.176,0.123l-0.123-0.009l-0.008,0.252
	c-0.006,0.201-0.021,0.264-0.07,0.312c-0.047,0.048-0.079,0.055-0.138,0.027c-0.096-0.043-0.276-0.046-0.299-0.005
	c-0.008,0.014-0.028,0.649-0.051,1.446c-0.402,0.022-0.805,0.006-1.207-0.08c-0.956-0.007-1.87-0.239-2.778-0.48
	c0.02-0.507,0.043-0.675,0.016-0.679c-0.128-0.018-0.329-0.085-0.368-0.093c-0.064-0.013-0.023,0.086-0.001-0.439
	c0.056-1.337,0.155-1.28,0.017-1.422c-0.063-0.063-0.499-0.093-0.499-0.093s0.213-4.19,0.226-4.477
	c0.024-0.513,0.004-0.721-0.07-0.721c-0.017,0-0.428,0.18-0.427-0.157c0-0.16,0.047-0.947,0.025-0.988
	c-0.033-0.062-0.863-0.429-1.746-0.515c-0.449-0.045-1.888-0.151-1.888-0.151s-2.381,0.032-2.808,0.079
	c-0.199,0.021-0.383,0.06-0.403,0.079c-0.028,0.028-0.04,0.179-0.04,0.577c0,0.296-0.015,0.567-0.029,0.604
	c-0.021,0.05-0.069,0.065-0.194,0.068c-0.172,0.005-0.306,0.046-0.337,0.105c-0.009,0.02-0.291,5.179-0.369,5.179
	c-0.02,0-0.487-0.063-0.539-0.008c-0.021,0.028-0.152,1.604-0.152,1.604l-0.734-0.016c0,0-0.242,1.424-0.275,1.319
	c-0.021-0.063,0.084-4.738,0.067-4.765c-0.049-0.066-0.414,0.122-0.437-0.119c-0.013-0.118-0.013-0.325-0.001-0.46
	c0.03-0.392,0.028-0.653-0.006-0.696c-0.033-0.039-0.354-0.107-0.509-0.106c-0.046,0.001-0.113-0.021-0.149-0.049
	c-0.038-0.027-3.583-0.329-3.748-0.32c-0.282,0.021-1.957,0.116-2.062,0.116c-0.094,0-0.113,0.106-0.123,0.613
	c-0.006,0.394-0.019,0.535-0.057,0.6c-0.033,0.062-0.062,0.078-0.095,0.062c-0.079-0.044-0.306-0.032-0.348,0.018
	c-0.039,0.044-0.282,4.477-0.282,4.477s-0.314,0.104-0.34,0.144c-0.021,0.039-0.301,0.161-0.317,0.271
	c-0.022,0.133-0.156-2.469-0.16-2.375l-2.309,0.7l-0.102,1.963c-0.606,0.013-1.317,0.008-2.089-0.014
	c-0.013-1.046-0.031-2.418-0.038-2.405c-0.03,0.057-0.356,0.021-0.447-0.047c-0.06-0.044-0.085-0.045-0.143-0.008
	c-0.14,0.087-0.157,0.021-0.146-0.553c0.014-0.438,0.007-0.522-0.033-0.562c-0.046-0.044-0.357-0.086-0.964-0.131
	c-0.229-0.017-0.269-0.027-0.321-0.105c-0.074-0.107-0.153-0.113-0.197-0.019c-0.039,0.089-0.217,0.101-0.275,0.018
	c-0.027-0.043-0.105-0.058-0.328-0.061c-0.161-0.002-0.567-0.014-0.902-0.022l-0.609-0.022l-0.016-0.217l-0.016-0.216l-1.531-0.013
	c-1.063-0.008-1.55,0.002-1.593,0.028c-0.037,0.023-0.062,0.076-0.062,0.128c0,0.146-0.142,0.189-0.535,0.17
	c-0.453-0.021-0.455-0.021-0.975,0.023c-0.251,0.021-0.537,0.067-0.635,0.101c-0.232,0.078-0.267,0.149-0.267,0.603
	c0,0.188-0.012,0.351-0.025,0.36c-0.018,0.013-0.162,0.021-0.328,0.022c-0.164,0.001-0.416,0.011-0.561,0.021l-0.26,0.02
	l-0.009,0.491c-0.006,0.27-0.019,0.503-0.025,0.519c-0.003,0.006-0.099,0.011-0.253,0.015c-1.077-0.464-2.089-0.894-2.301-0.871
	c-2.187,0.246-1.66-0.626-3.461-0.555c0.019-0.423,0.072-1.356,0.137-1.435c0.044-0.056,0.079-0.137,0.079-0.185
	c0-0.047,0.021-0.11,0.045-0.144c0.064-0.085,0.101-0.57,0.044-0.594c-0.022-0.012-0.233-0.034-0.47-0.058
	c-0.235-0.021-0.666-0.062-0.961-0.094c-0.293-0.031-0.737-0.063-0.985-0.075c-0.295-0.013-0.455-0.034-0.46-0.061
	c-0.006-0.022-0.028-0.11-0.05-0.194c-0.03-0.118-0.031-0.164-0.003-0.197c0.02-0.021,0.035-0.127,0.035-0.229
	c0-0.182-0.004-0.192-0.106-0.249c-0.075-0.042-0.119-0.05-0.146-0.023c-0.021,0.021-0.078,0.029-0.128,0.021
	c-0.241-0.04-0.803-0.086-1.493-0.121c-0.925-0.047-3.049-0.034-3.094,0.019c-0.019,0.021-0.034,0.095-0.04,0.161
	c-0.009,0.104,0.005,0.131,0.078,0.174c0.074,0.044,0.086,0.064,0.067,0.159c-0.033,0.194-0.062,0.211-0.324,0.188
	c-0.262-0.025-0.503,0.021-0.661,0.137c-0.056,0.039-0.155,0.183-0.23,0.329c-0.105,0.201-0.204,2.654-0.242,2.654
	c-0.02,0-0.075,1.049-0.126,2.079c-1.914,0.13-3.78,0.238-4.977,0.304c0,0-2.166-0.358-2.094-0.257c0,0-2.759,0.652-3.169,0.274
	c-2.104-2.384-6.355-3.8-9.291-5.129c-3.678-2.388-4.66-2.95-8.492-4.767c-2.413-1.87-5.331-1.25-7.913-2.49
	c-3.334-1.89-7.021-1.956-10.594-2.315c-2.942,0.512-4.892-2.715-7.429-3.892c-3.324-2.237-6.852-4.169-10.621-4.76
	c-3.092-1.411-5.844,0.867-8.906,0.811c-2.906,0.88-5.475-0.804-7.266-3.561c-2.119-2.633-4.34-4.576-6.721-6.809
	c-2.027-1.997-4.466-1.656-6.682-2.398c-2.245-1.807-4.771-6.245-6.903-6.366c-3.276,0.394-6.084-0.892-8.839-2.797
	c-2.207-2.809-5.23-4.117-7.419-7.019c-3.297-1.551-3.509-6.024-5.815-6.257c-1.229-0.816-2.479-1.562-3.746-2.251
	c-1.269-0.688-2.558-1.318-3.858-1.912c-1.077-0.916-3.685-2.864-6.187-4.194c-0.222-0.38-0.211-0.31-0.433-0.916
	c-0.11-0.268-1.129-0.517-1.921-0.647c-0.868-0.461-1.66-1.461-1.928-1.626c-0.416-0.24-3.453,0.363-3.858,0.051
	c-1.137-0.962-2.349-1.644-3.558-1.95c-1.211,0.305-2.42,0.51-3.709,1.229c-2.217,1.535-5.4,2.271-6.266,5.604
	c-1.926,2.138-3.945,4.094-5.77,6.358c-2.295,0.489-2.797,3.214-4.044,5.065c-1.871,2.528-3.922,4.527-6.46,5.902
	c-0.881,1.153-1.661,2.503-2.544,3.682c-0.884,1.176-1.872,2.178-3.174,2.633c-2.365,1.47-4.682,3.206-7.251,4.141
	c-2.355,1.617-4.91,2.652-7.193,4.441c-2.599,2.913-7.355,0.803-10.64,0.518c-2.897,0.44-5.11,1.835-8.178,2.802
	c-2.486,1.491-5.44,2.179-8.207,2.584c-3.23-0.227-5.335,3.301-8.444,3.603c-2.77,0.859-5.783-0.206-8.285,1.915
	c-3.275,0.597-4.824,4.107-7.606,4.135c-1.478-0.549-3.909-0.812-4.514-0.761c-0.607-0.041-2.994,1.18-4.38,1.912
	c-2.71,1.039-9.268,2.66-12.144,2.997c-0.458,0.227-5.585-0.549-6.049-0.345c-2.365,1.053-1.875-0.286-4.25,0.75
	c-0.49,0.163-0.574,1.669-1,2c-0.855,0.85-13.625,5.625-13.625,5.625l-7.875-0.75l-2.875-3.75l-3.351,0.721l-6.774,4.279l-4.5-1.375
	l-1.775-3.55L128,72.111l-4.375,1.5l-0.867,0.719c-2.372,0.813-4.945,0.489-7.111,2.168c-3.832,1.816-4.814,2.379-8.492,4.767
	c-2.936,1.329-7.187,2.745-9.291,5.129c-0.41,0.378-3.169-0.274-3.169-0.274c0.072-0.102-2.094,0.257-2.094,0.257
	c-3.231-0.178-11.344-0.663-12.126-1.065c-0.466-0.172-0.954-1.46-1.428-1.469c-2.359-0.248-1.562,0.786-3.918,0.521
	c-0.461-0.049-4.72,2.047-5.184,1.977c-2.604,0.502-8.775,0.902-11.428,0.745c-1.414-0.255-3.834-0.66-4.353-0.456
	c-0.542,0.123-2.59,1.023-3.729,1.914c-2.437,0.746-4.759-1.891-7.783-1.504c-2.77-1.157-5.104,0.604-7.76,0.623
	c-2.796,0.596-5.61-1.898-8.367-0.807c-2.526,0.413-5.295,0.63-7.878,0.018c-2.944,0.007-5.262-0.599-7.913-0.182
	c-2.788,1.159-6.354,4.318-9.428,2.494C0.873,89.023,0.437,88.887,0,88.762v9.959H612z M569.695,69.132
	c-0.026-0.812,0.062-1.257,0.199-0.888v0.002c0.093,0.251,0.203,0.859,0.315,1.96c0,0,0.064,0.729,0.109,1.357h-0.542
	C569.74,70.457,569.711,69.612,569.695,69.132z M570.258,72.938c-0.23-0.01-0.375-0.025-0.432-0.044
	c-0.004-0.118-0.009-0.246-0.013-0.36h0.636c0.008,0.128,0.018,0.28,0.025,0.417C570.395,72.945,570.319,72.941,570.258,72.938z
	 M572.238,48.055c0.104-0.498,0.204-0.962,0.287-1.356c0.039-0.186,0.076-0.354,0.111-0.508c0.007,0.02,0.035,0.022,0.039,0
	c0.015-0.048,0.024-0.094,0.041-0.143c-0.032,0.188-0.066,0.412-0.112,0.661c-0.071,0.401-0.151,0.868-0.245,1.37
	c-0.095,0.499-0.195,1.031-0.298,1.562c-0.106,0.532-0.215,1.063-0.315,1.562c-0.098,0.499-0.202,0.961-0.285,1.356
	c-0.039,0.188-0.076,0.359-0.111,0.514c-0.022-0.002-0.04,0.008-0.053,0.028c-0.005-0.002-0.01-0.002-0.01-0.004
	c0.025-0.165,0.058-0.348,0.095-0.552c0.071-0.401,0.149-0.868,0.248-1.367c0.094-0.5,0.192-1.032,0.295-1.562
	C572.031,49.085,572.139,48.555,572.238,48.055z M569.813,47.021h0.225v0.632h-0.225V47.021z M569.813,48.142h0.225v0.631h-0.225
	V48.142z M569.813,49.265h0.225v0.631h-0.225V49.265z M569.813,50.386h0.225v0.631h-0.225V50.386z M569.813,51.51h0.225v0.631
	h-0.225V51.51z M569.813,52.634h0.225v0.631h-0.225V52.634z M569.484,45.745h0.213c-0.097,1.299-0.602,8.542,0.095,8.256
	c0.157,0.015,0.275-0.371,0.39-0.704c0.122-0.363,0.186-0.743,0.195-1.125l0.132-6.469c0.438-0.002,0.878-0.009,1.305-0.022
	c-0.158,1.006-0.668,4.241-1.154,6.58c-0.029,0.149-0.062,0.293-0.093,0.436c0,0.002-0.002,0.007-0.004,0.009
	c-0.018,0.089-0.057,0.21-0.057,0.21c-0.311,1.28-0.709,1.823-1.021,1.202C569.089,53.324,569.484,45.745,569.484,45.745z
	 M568.013,71.891c-0.036-0.002-0.067-0.004-0.104-0.006l0.072-0.702c0.002-0.021,0.032-0.021,0.032,0.001V71.891z M567.907,45.653
	v7.928c0,0.025-0.037,0.029-0.042,0.003l-0.492-3.33l-0.535-4.601H567.907z M566.596,48.347c-0.087-0.76-0.162-1.394-0.215-1.84
	c0.014,0.004,0.027,0.004,0.042,0c0.07,0.444,0.18,1.069,0.292,1.822c0.111,0.762,0.252,1.649,0.383,2.607
	c0.13,0.955,0.263,1.978,0.395,2.997c0.12,1.021,0.236,2.043,0.337,3.002c0.07,0.682,0.128,1.327,0.173,1.921
	c-0.02-0.001-0.036,0.009-0.052,0.027c-0.024,0.039-0.051,0.078-0.068,0.118c-0.022-0.215-0.048-0.438-0.072-0.666
	c-0.051-0.438-0.104-0.901-0.158-1.38c-0.112-0.957-0.236-1.979-0.363-2.997C567.034,51.92,566.784,49.879,566.596,48.347z"/>
</svg>
