<?xml version="1.0" encoding="utf-8"?>
<!-- Generator: Adobe Illustrator 16.0.0, SVG Export Plug-In . SVG Version: 6.00 Build 0)  -->
<!DOCTYPE svg PUBLIC "-//W3C//DTD SVG 1.1//EN" "http://www.w3.org/Graphics/SVG/1.1/DTD/svg11.dtd">
<svg version="1.1" id="Layer_1" xmlns="http://www.w3.org/2000/svg" xmlns:xlink="http://www.w3.org/1999/xlink" x="0px" y="0px"
	 width="612px" height="87.464px" viewBox="0 0 612 87.464" enable-background="new 0 0 612 87.464" xml:space="preserve">
<g id="Layer_3">
</g>
<g id="Layer_4">
	<path fill="#6F5CA7" d="M3.885,60.039C2.5,59.283,1.253,58.601,0,57.917v3.269c0.081,0.13,0.162,0.26,0.24,0.39
		c0.39,0.646,2.089,0.735,1.506,1.75C1.4,63.927,0.792,64.423,0,64.625v3.342c2.267,1.779,5.057,2.996,7.273,4.912
		C4.552,73.966,2.328,72.839,0,72.055v14.766h612V68.607c-0.599-0.074-1.197-0.165-1.792-0.299c0.509-0.59,1.356-0.396,1.792-0.928
		v-0.373c-1.834-0.43-3.633-0.922-5.649-2.034c1.839-0.419,3.1,0.797,4.469,0.305c0.327,0.692,0.739,0.918,1.182,0.931v-5.83
		c-0.423-0.142-0.84-0.299-1.242-0.502c-0.424-0.213-1.314-0.234-0.614-1.103c0.404-0.13-0.356-1.409,0.795-0.806
		c0.362,0.346,0.711,0.562,1.062,0.634v-3.567c-0.338-0.062-0.675-0.168-1.008-0.354c0.347-0.12,0.681-0.255,1.008-0.396v-4.043
		c-1.45,0.065-2.885,0.118-4.133-0.666c0.957-1.727,2.518-2.59,4.133-3.391v-2.589c-0.055,0.077-0.109,0.146-0.164,0.236
		c-0.134-0.676-0.286-0.957-0.205-1.116c0.8-1.55-0.155-1.605-1.265-1.497c-0.394,0.038-0.896,0.67-1.129,0.045
		c-0.196-0.525,0.254-0.889,0.903-0.917c0.779-0.032,1.271-0.618,1.858-1.053v-2.013c-1.006,0.215-1.862-1.053-2.925-0.24
		c-0.764,0.584-0.732-1.485-1.829-0.541c-0.715,0.617-1.708,1.178-2.781,0.374c-0.764-0.571-1.596-1.051-2.394-1.572
		c-0.098-0.24-0.333-0.383-0.428-0.625c0.257,0.131,0.571,0.06,0.813,0.242c1.402-0.126,2.573,1.254,3.961,0.752
		c1.082-0.393,2.536-0.108,3.165-1.482c0.2-0.438,0.44-0.228,0.745-0.114c0.277,0.103,0.613,0.059,0.922,0.08
		c-0.106-0.858,0.254-1.161,0.749-1.319V31.33c-0.388-0.13-0.718-0.39-0.902-0.965c-0.086-0.271-1.044,0.527-1.632,0.696
		c-0.619,0.18-1.19,1.659-2.03,0.065c-0.238-0.456-1.183,0.197-1.707,0.49c-1.329,0.746-2.682,0.68-4.093,0.383
		c-0.497-0.105-0.884-0.216-0.688-0.834c0.288-0.911,0.632-0.168,0.938-0.016c1.096,0.542,1.709-0.8,2.692-0.68
		c-0.165-0.263-0.332-0.525-0.681-1.081c1.436,0.842,2.584-0.2,3.808,0.087c0.114,0.027,0.412-0.308,0.456-0.511
		c0.052-0.25-0.161-0.45-0.441-0.532c-2.192-0.639-0.411-1.283,0.032-1.868c0.15-0.198,0.798-0.291,0.765-0.306
		c-1.683-0.817,0.593-1.703-0.142-2.659c-0.816,0.42-1.644,0.839-2.466,1.27c-0.493,0.259-0.898,0.603-1.489,0.027
		c-0.814-0.792,0.311-0.887,0.382-1.344c0.028-0.178,0.141-0.343,0.203-0.493c-0.336-0.622-0.663-0.036-0.982-0.047
		c-0.296-0.01-0.756,0.485-0.808-0.254c-0.038-0.528,0.043-0.886,0.721-0.538c0.277,0.143,0.882-0.084,0.761-0.248
		c-1.139-1.531,0.874-2.461,0.757-3.824c-0.87-0.143-1.678,1.305-2.485-0.068c-0.149-0.257-0.514,0.365-0.603,0.724
		c-0.183,0.728-0.177,1.528-0.811,2.104c-0.335-1.554-0.312-1.845,0.235-2.744c0.511-0.842,1.387-1.5,1.438-2.875
		c-0.748,0.596-1.308,1.041-1.932,1.541c-0.479-1.225-0.142-2.464-0.419-3.832c-1.264,0.792-0.489,2.172-1.077,3.051
		c-0.777-0.086-0.886-1.346-1.98-0.979c0.51,1.798,2.636,2.96,2.032,5.344c-0.721-2.213-2.563-2.402-4.594-2.771
		c0.908,0.936,1.853,1.862-0.456,2.296c1.247,0.703,2.229,0.153,3.223,0.476c-0.716,0.545-1.668,0.753-2.006,1.943
		c1.001-0.778,1.894,1.519,2.944-0.241c0.146-0.241,0.926,0.481,0.872,1.143c-0.098,1.192-0.234,2.382-0.368,3.712
		c-1.479-0.661-2.365-1.563-2.98-2.828c-0.341-0.695-0.256-2.127-1.888-1.249c-0.566,0.306-0.959-1.13-1.9-1.033
		c-0.33,0.734,0.528,1.062,0.568,1.773c-0.43,0.09-0.882,0.185-1.363,0.286c0.13,0.884,1.082,1.125,1.304,1.936
		c-0.303,0.539-1.231,0.194-1.448,0.928c0.818,1.065,2.177,1.1,3.405,1.59c-0.688,0.809-1.643,0.545-2.297,0.983
		c0.065,0.921,1.502,0.468,1.483,1.471c-2.058,0.747-3.835,1.944-5.775,3.175c1.056,0.611,1.878,1.24,2.992,0.832
		c0.107-0.04,0.296-0.156,0.302-0.147c1.034,1.682,1.743,0.843,2.549-0.249c0.318-0.432,0.453-0.333,0.727,0.859
		c0.328,0.249,0.668,0.231,1.011,0.15c0.104-0.065,0.227-0.093,0.359-0.1c0.439-0.131,0.88-0.252,1.301,0.061
		c0.004,0,0.007-0.001,0.01-0.002c0.639-0.432,1.013-1.057,1.437-2.196c-0.383,1.133-0.762,1.722-1.349,2.171
		c-0.027,0.011-0.059,0.017-0.088,0.025c-0.002,0.001-0.003,0.003-0.005,0.004c-0.001-0.001-0.003-0.001-0.005-0.002
		c-0.375,0.092-0.89-0.082-1.301-0.061c-0.12,0.036-0.24,0.071-0.359,0.1c-0.214,0.134-0.345,0.426-0.315,1.021
		c-0.229,1.461-1.413,1.067-1.997,0.7c-1.557-0.976-2.803-1.117-3.902,0.558c-0.164,0.253-0.414,0.234-0.655,0.064
		c-1.595-1.112-3.002,0.173-4.591,0.494c1.887-0.06,2.146,3.058,4.504,2.064c0.308,0.471-0.679,0.792-0.301,0.998
		c0.908,0.494,1.423-0.623,2.183-0.768c1.147,2.826,3.018,0.059,4.44,0.597c-1.351,2.13-4.514,2.938-6.499,1.667
		c-0.486-0.312-1.041-1.011-1.355,0.189c-0.045,0.168-0.359,0.532-0.592,0.305c-1.229-1.192-2.305,0.618-3.517,0.143
		c1.347,0.244,1.535,3.153,3.641,1.36c0.003,2.611,1.942,3.675,4.915,2.791c1.05-0.312,2.21,0.609,3.189-0.326
		c0.009-0.01,0.312,0.199,0.368,0.348c0.134,0.363-0.252,0.379-0.431,0.479c-2.366,1.35-4.75,2.642-7.734,0.844
		c0.281,1.441-0.055,2.152-1.389,1.428c-1.711-0.931-2.813,0.743-4.607,0.832c1.347,1.217,2.846,1.963,2.983,3.725
		c0.009,0.113,0.438,0.301,0.652,0.275c2.446-0.261,4.799,1.131,7.354,0.232c-1.064,2.056-4.234,2.748-6.412,1.554
		c-0.928-0.511-1.234-0.479-1.707,0.649c-0.295,0.701-0.796,0.391-0.981,0.273c-0.806-0.508-1.407,0.018-2.006,0.322
		c0.744-1.189,1.419-2.46,2.033-3.883c-2.564,1.727-4.471,3.102-6.757,3.689c-1.282,0.329-2.446,0.372-3.172-1.029
		c-0.28-0.541,1.071-4.205,1.653-4.377c0.938-0.275,1.88-0.543,2.812-0.812c-0.164-1.029-2.394,0.335-1.579-1.111
		c0.831-1.475,0.766-3.188,1.761-4.562c0.458-0.634,1.203-1.642,0.086-2.339c-0.979-0.612-1.151,0.649-1.682,1.038
		c-2.121,1.562-4.271,2.664-7.747,1.016c4.475-0.816,4.773-3.989,5.366-6.843c0.34-1.639-0.693-0.786-1.315-0.47
		c-1.121,0.371-2.056,1.012-2.885,1.795c0.946-0.888,1.939-1.725,2.199-3.155c0.379-0.847,1.47-1.411,0.995-2.844
		c-2.315,1.095-4.164,3.347-7.318,2.939c1.18-2.33,4.036-2.815,4.633-5.319c-1.104-0.068-2.307,1.344-3.008-0.236
		c-1.058-2.383,2.283-1.85,2.553-3.309c-1.013-1.576-2.153,0.597-3.176-0.46c0.977-1.095,1.962-2.2,3.317-3.721
		c-2.477,0.483-3.864,2.402-6.215,2.083c0.426-1.125,0.852-2.118,1.169-3.145c0.173-0.561,0.574-1.734-0.367-1.542
		c-3.271,0.666-0.567-2.015-1.79-2.659c-0.283,0.986-2.289,0.7-1.939,1.079c1.775,1.914-0.423,2.16-1.081,2.796
		c-0.562,0.542-0.945,1.026-0.725,1.681c1.592,4.685-1.62,2.312-3.258,2.249c0.673,2.562,2.617,4.239,4.463,5.98
		c-1.63,1.249-2.846-0.871-4.272-0.181c1.394,2.658,1.256,3.981-0.428,4.224c-3.065,0.443-3.065,0.443-4.723,2.307
		c1.252,0.1,2.505,0.196,4.57,0.356c-2.365,1.188-3.99,2.005-6.358,3.194c3.401,0.322,7.369-3.189,8,2.564
		c-1.746,0.738-3.169-0.703-4.788-0.775c-0.703-0.031-1.425-0.105-1.57,0.787c-0.104,0.645,0.417,1.029,0.941,1.24
		c1.638,0.66,3.296,1.27,5.476,2.102c-4.984,2.021-6.729-2.949-10.243-3.629c0.576,0.977-0.331,2.729,1.43,2.871
		c1.116,0.09,1.34,0.457,1.354,1.355c0.02,1.092-0.8,0.842-1.419,0.875c-2.039,0.115-1.8,0.852-0.562,1.936
		c1.013,0.889,1.6,2.33,3.184,2.464c0.497,0.042,0.872,0.151,0.916,0.731c0.062,0.807-0.629,0.707-1.071,0.986
		c-1.924,1.211-3.723-0.416-5.592-0.396c0.08,1.451,1.949,1.165,1.858,2.367c-0.058,0.766,1.048,1.238,0.306,2.147
		c-0.771,0.944-1.304,0.261-1.985-0.006c-0.464-0.183-1.059-0.709-1.5-0.083c-0.457,0.646-0.173,1.318,0.379,1.793
		c0.681,0.587,1.052,1.312,1.255,2.07c-0.778,0.142-1.548,0.251-2.307,0.384c-0.281-0.353-0.85-0.729,0.306-0.873
		c0.521-0.065,0.243-0.597,0.267-0.836c0.058-0.593-0.454-0.239-0.704-0.235c-1.724,0.026-3.452,0.217-5.15-0.216
		c-0.214-0.055-0.834,0.118-0.582-0.452c0.085-0.195,0.172-0.873,0.815-0.455c0.99,0.643,1.802-0.203,2.616-0.387
		c0.117-0.583-0.635-0.634-0.591-1.311c1.531,0.851,2.267-0.674,3.35-1.147c1.419-0.618,1.331-1.291-0.092-1.983
		c-0.551-0.269-1.103-0.779-1.846-0.312c-0.167,0.104-0.617,0.386-0.883-0.247c-0.426-1.016-0.7-1.042-1.534-0.584
		c-1.957,1.074-4.808,0.451-5.765-1.396c2.299,0.808,4.412-0.442,6.611-0.207c0.192,0.021,0.579-0.147,0.587-0.25
		c0.124-1.582,1.472-2.254,2.683-3.346c-1.612-0.082-2.604-1.586-4.143-0.748c-1.199,0.651-1.501,0.014-1.248-1.285
		c-2.683,1.617-4.825,0.455-6.952-0.756c-0.159-0.091-0.507-0.104-0.387-0.431c0.05-0.134,0.323-0.319,0.331-0.312
		c0.881,0.842,1.924,0.014,2.867,0.293c2.671,0.795,4.415-0.162,4.418-2.51c1.892,1.612,2.062-1.003,3.271-1.223
		c-1.089,0.427-2.055-1.2-3.159-0.128c-0.209,0.204-0.491-0.123-0.531-0.274c-0.284-1.079-0.781-0.45-1.22-0.17
		c-1.784,1.142-4.628,0.416-5.843-1.499c1.28-0.484,2.96,2.003,3.992-0.537c0.684,0.13,1.146,1.134,1.961,0.69
		c0.34-0.185-0.546-0.474-0.27-0.897c2.118,0.894,2.353-1.909,4.049-1.855c-1.429-0.289-2.694-1.444-4.127-0.444
		c-0.218,0.152-0.441,0.169-0.59-0.058c-0.988-1.505-2.108-1.379-3.508-0.502c-0.524,0.33-1.59,0.684-1.796-0.629
		c0.025-0.535-0.092-0.796-0.282-0.917c0.308,0.073,0.611,0.089,0.906-0.135c0.246-1.071,0.367-1.161,0.653-0.772
		c0.725,0.981,1.361,1.735,2.291,0.224c0.005-0.008,0.174,0.096,0.271,0.132c1.001,0.367,1.739-0.198,2.688-0.748
		c-1.745-1.106-3.343-2.183-5.191-2.854c-0.017-0.901,1.273-0.494,1.334-1.322c-0.59-0.394-1.446-0.156-2.064-0.884
		c1.104-0.441,2.325-0.472,3.062-1.429c-0.194-0.66-1.029-0.35-1.302-0.834c0.198-0.728,1.055-0.945,1.172-1.74
		c-0.434-0.091-0.841-0.176-1.227-0.257c0.036-0.64,0.809-0.935,0.512-1.594c-0.847-0.087-1.199,1.204-1.709,0.929
		c-1.467-0.789-1.391,0.498-1.695,1.123c-0.555,1.137-1.351,1.948-2.681,2.542c-0.12-1.196-0.243-2.265-0.331-3.336
		c-0.048-0.595,0.653-1.244,0.784-1.027c0.945,1.582,1.747-0.482,2.646,0.217c-0.305-1.07-1.159-1.257-1.803-1.747
		c0.893-0.29,1.774,0.204,2.896-0.428c-2.074-0.39-1.228-1.223-0.41-2.064c-1.824,0.331-3.481,0.5-4.129,2.49
		c-0.542-2.143,1.369-3.187,1.827-4.803c-0.984-0.33-1.082,0.802-1.78,0.879c-0.528-0.79,0.167-2.03-0.969-2.743
		c-0.249,1.229,0.054,2.343-0.376,3.444c-0.562-0.449-1.064-0.849-1.736-1.385c0.046,1.236,0.834,1.828,1.293,2.584
		c0.491,0.808,0.513,1.069,0.211,2.466c-0.568-0.518-0.563-1.237-0.728-1.892c-0.08-0.322-0.406-0.881-0.541-0.65
		c-0.728,1.234-1.452-0.067-2.234,0.062c-0.104,1.225,1.703,2.061,0.681,3.437c-0.108,0.147,0.435,0.351,0.684,0.223
		c0.608-0.313,0.682,0.009,0.646,0.483c-0.046,0.665-0.46,0.219-0.725,0.229c-0.288,0.01-0.582-0.516-0.884,0.042
		c0.057,0.135,0.157,0.283,0.183,0.443c0.063,0.411,1.075,0.497,0.343,1.208c-0.53,0.517-0.896,0.208-1.339-0.024
		c-0.738-0.387-1.481-0.764-2.216-1.142c-0.659,0.859,1.385,1.655-0.128,2.39c-0.029,0.014,0.553,0.097,0.688,0.275
		c0.398,0.525,2.002,1.104,0.029,1.679c-0.252,0.074-0.442,0.254-0.396,0.479c0.039,0.182,0.307,0.483,0.409,0.459
		c1.101-0.258,2.133,0.679,3.422-0.079c-0.312,0.499-0.463,0.735-0.611,0.971c0.885-0.108,1.436,1.098,2.421,0.611
		c0.275-0.136,0.584-0.804,0.843,0.015c0.177,0.556-0.172,0.656-0.617,0.75c-1.27,0.267-2.483,0.326-3.68-0.344
		c-0.472-0.264-1.318-0.851-1.535-0.441c-0.754,1.433-1.268,0.103-1.823-0.058c-0.528-0.152-1.391-0.868-1.468-0.625
		c-0.442,1.386-1.826,0.733-2.632,1.274c0.378,1.367,2.732,0.212,2.494,2.132c0.277-0.019,0.578,0.021,0.828-0.072
		c0.273-0.102,0.49-0.291,0.67,0.103c0.565,1.235,1.872,0.979,2.845,1.332c1.247,0.451,2.301-0.79,3.562-0.676
		c0.218-0.163,0.501-0.099,0.73-0.217c-0.085,0.217-0.297,0.346-0.384,0.562c-0.718,0.468-1.465,0.9-2.15,1.413
		c-0.966,0.723-1.857,0.218-2.5-0.336c-0.986-0.849-0.959,1.011-1.646,0.486c-0.973-0.744-1.753,0.46-2.679,0.211
		c-0.36-0.096-0.939-0.188-0.997,0.327c-0.045,0.382,0.192,1.065,0.468,1.163c0.84,0.301,1.312,1.232,2.25,1.271
		c0.584,0.025,0.989,0.353,0.812,0.824c-0.209,0.562-0.662-0.006-1.016-0.041c-0.997-0.097-1.854-0.047-1.137,1.346
		c0.073,0.143-0.064,0.396-0.186,1.003c-1.38-2.271-2.624,0.372-3.983-0.382c2.152,2.44,5.879,2.526,7.552,5.544
		c-2.231,1.403-5.13-0.174-7.474,1.112c0.189,0.312,0.402,0.591,0.624,0.856c-1.459,0.721-2.656,1.646-4.349,1.416
		c0.427-1.125,0.853-2.116,1.169-3.145c0.174-0.561,0.575-1.734-0.366-1.541c-3.271,0.665-0.567-2.016-1.79-2.658
		c-0.283,0.985-2.289,0.699-1.939,1.078c1.775,1.913-0.423,2.16-1.081,2.795c-0.562,0.543-0.946,1.026-0.725,1.682
		c1.592,4.686-1.62,2.312-3.259,2.25c0.674,2.562,2.617,4.238,4.464,5.98c-1.63,1.248-2.847-0.871-4.272-0.182
		c1.394,2.658,1.255,3.98-0.428,4.225c-3.066,0.441-3.066,0.441-4.724,2.307c1.253,0.1,2.506,0.195,4.57,0.355
		c-2.365,1.188-3.99,2.004-6.357,3.193c3.4,0.322,7.368-3.189,8,2.564c-1.746,0.737-3.169-0.705-4.788-0.777
		c-0.703-0.03-1.426-0.105-1.57,0.789c-0.104,0.645,0.417,1.029,0.941,1.24c1.638,0.66,3.296,1.27,5.476,2.101
		c-4.985,2.022-6.729-2.949-10.243-3.63c0.576,0.977-0.332,2.73,1.429,2.873c1.116,0.09,1.341,0.457,1.354,1.354
		c0.019,1.092-0.8,0.842-1.419,0.876c-2.039,0.115-1.8,0.853-0.563,1.937c0.11,0.097,0.213,0.201,0.315,0.309l-1.777,0.114
		c-0.063-0.124-0.299-0.017-0.432-0.015c-1.114,0.015-2.231,0.112-3.33-0.111c-0.139-0.028-0.539,0.062-0.376-0.235
		c0.055-0.101,0.11-0.452,0.527-0.235c0.641,0.334,1.164-0.104,1.691-0.199c0.075-0.303-0.412-0.329-0.383-0.68
		c0.989,0.439,1.466-0.351,2.165-0.597c0.918-0.321,0.862-0.67-0.059-1.028c-0.356-0.141-0.714-0.406-1.193-0.162
		c-0.108,0.053-0.399,0.199-0.571-0.129c-0.273-0.525-0.452-0.541-0.991-0.303c-1.266,0.557-3.107,0.232-3.727-0.725
		c1.484,0.418,2.853-0.23,4.274-0.108c0.124,0.013,0.374-0.075,0.379-0.13c0.081-0.82,0.951-1.169,1.733-1.734
		c-1.043-0.043-1.683-0.822-2.679-0.39c-0.774,0.339-0.97,0.009-0.807-0.666c-1.734,0.839-3.119,0.235-4.495-0.394
		c-0.104-0.047-0.328-0.055-0.25-0.223c0.032-0.068,0.209-0.166,0.214-0.162c0.57,0.438,1.244,0.008,1.854,0.151
		c1.729,0.413,2.855-0.084,2.858-1.302c1.223,0.837,1.332-0.521,2.114-0.635c-0.704,0.222-1.328-0.623-2.043-0.066
		c-0.136,0.105-0.317-0.062-0.346-0.143c-0.184-0.56-0.505-0.233-0.787-0.088c-1.154,0.592-2.991,0.215-3.776-0.777
		c0.827-0.252,1.913,1.039,2.581-0.278c0.439,0.067,0.74,0.588,1.269,0.356c0.22-0.096-0.354-0.246-0.176-0.465
		c1.37,0.463,1.521-0.99,2.619-0.963c-0.925-0.15-1.743-0.748-2.669-0.229c-0.141,0.079-0.286,0.088-0.382-0.03
		c-0.64-0.781-1.363-0.715-2.269-0.26c-0.34,0.171-1.027,0.354-1.161-0.327c0.019-0.295-0.071-0.425-0.211-0.481
		c0.209,0.043,0.416,0.059,0.615-0.063c0.158-0.556,0.237-0.603,0.422-0.399c0.469,0.508,0.88,0.899,1.481,0.115
		c0.004-0.005,0.111,0.049,0.175,0.068c0.646,0.189,1.126-0.104,1.739-0.389c-1.128-0.574-2.161-1.133-3.357-1.48
		c-0.01-0.469,0.824-0.256,0.863-0.686c-0.381-0.205-0.937-0.082-1.336-0.459c0.715-0.229,1.505-0.244,1.979-0.742
		c-0.127-0.342-0.667-0.182-0.842-0.432c0.129-0.379,0.683-0.492,0.758-0.902c-0.28-0.049-0.544-0.092-0.793-0.135
		c0.022-0.332,0.522-0.484,0.331-0.826c-0.548-0.045-0.774,0.625-1.104,0.48c-0.948-0.408-0.899,0.26-1.098,0.583
		c-0.356,0.591-0.872,1.011-1.731,1.319c-0.078-0.621-0.157-1.176-0.215-1.731c-0.03-0.309,0.423-0.646,0.508-0.532
		c0.609,0.819,1.129-0.25,1.711,0.111c-0.196-0.557-0.75-0.652-1.165-0.906c0.576-0.15,1.146,0.105,1.872-0.222
		c-1.341-0.203-0.793-0.635-0.267-1.071c-1.179,0.172-2.251,0.26-2.67,1.293c-0.351-1.113,0.887-1.654,1.183-2.492
		c-0.637-0.172-0.699,0.416-1.151,0.455c-0.341-0.408,0.108-1.053-0.625-1.422c-0.162,0.637,0.034,1.215-0.243,1.786
		c-0.363-0.233-0.688-0.44-1.124-0.719c0.03,0.642,0.539,0.948,0.836,1.341c0.318,0.419,0.333,0.555,0.138,1.279
		c-0.367-0.27-0.365-0.643-0.471-0.98c-0.053-0.166-0.263-0.457-0.351-0.338c-0.47,0.641-0.938-0.035-1.444,0.031
		c-0.067,0.636,1.103,1.068,0.44,1.783c-0.07,0.076,0.28,0.183,0.439,0.115c0.396-0.162,0.441,0.006,0.419,0.25
		c-0.028,0.347-0.297,0.115-0.468,0.119c-0.188,0.006-0.377-0.268-0.57,0.022c0.035,0.069,0.102,0.146,0.116,0.229
		c0.042,0.213,0.695,0.258,0.223,0.627c-0.344,0.268-0.579,0.107-0.865-0.014c-0.479-0.201-0.959-0.396-1.434-0.593
		c-0.427,0.446,0.896,0.858-0.084,1.239c-0.018,0.008,0.358,0.052,0.445,0.144c0.257,0.272,1.294,0.573,0.02,0.871
		c-0.163,0.038-0.286,0.132-0.256,0.248c0.023,0.095,0.198,0.251,0.265,0.237c0.712-0.133,1.379,0.354,2.213-0.041
		c-0.202,0.26-0.3,0.383-0.396,0.504c0.57-0.055,0.928,0.57,1.564,0.318c0.178-0.072,0.378-0.418,0.544,0.008
		c0.115,0.287-0.11,0.34-0.397,0.389c-0.82,0.139-1.606,0.169-2.381-0.18c-0.304-0.137-0.853-0.439-0.99-0.229
		c-0.488,0.743-0.82,0.055-1.181-0.029c-0.342-0.078-0.898-0.451-0.948-0.324c-0.286,0.719-1.183,0.381-1.701,0.66
		c0.244,0.709,1.767,0.11,1.611,1.106c0.18-0.011,0.374,0.011,0.535-0.037c0.178-0.054,0.318-0.151,0.435,0.054
		c0.364,0.642,1.211,0.508,1.839,0.69c0.807,0.233,1.486-0.41,2.303-0.353c0.141-0.084,0.323-0.051,0.474-0.111
		c-0.055,0.111-0.191,0.18-0.249,0.292c-0.463,0.241-0.945,0.467-1.391,0.731c-0.624,0.375-1.201,0.114-1.616-0.174
		c-0.638-0.439-0.62,0.524-1.062,0.252c-0.629-0.386-1.135,0.239-1.731,0.109c-0.233-0.049-0.608-0.098-0.646,0.17
		c-0.029,0.197,0.125,0.553,0.302,0.604c0.544,0.156,0.85,0.641,1.456,0.66c0.377,0.012,0.639,0.184,0.524,0.428
		c-0.137,0.291-0.429-0.004-0.656-0.021c-0.645-0.05-1.199-0.023-0.735,0.698c0.048,0.075-0.041,0.204-0.119,0.521
		c-0.892-1.178-1.695,0.193-2.575-0.197c1.393,1.267,3.802,1.312,4.884,2.877c-1.443,0.729-3.317-0.09-4.833,0.576
		c0.709,0.928,1.755,1.453,3.016,1.803c-1.188,0.535-2.451-0.243-3.443,0.281c0.393,0.726,1.396,0.771,1.985,1.254
		c0.551,0.449,0.995,0.379,1.49,0c0.669-0.281,0.228,0.314,0.462,0.377c0.407,0.404-0.11,0.414-0.356,0.514
		c-1.538,0.622-3.396,0.486-4.835,1.373c0.822,0.535,1.684,1.318,2.802,1.309c0.604-0.007,1.48,0.713,1.999-0.162
		c0.795,0.229,1.526-0.338,2.596-0.143c-1.211,0.536-2.286,0.764-3.391,0.969c0.03,0.073,0.075,0.125,0.127,0.17L456,80.455
		l-9.186,0.051c-0.021-0.318-0.088-0.662-0.248-1.053c-0.419,0.346-0.843,0.694-1.287,1.062l-0.988,0.006
		c0.456-0.944,1.352-1.617,1.261-2.749c-0.712,0.396-1.396,0.777-2.084,1.154c-0.298,0.162-0.662,0.361-0.881-0.018
		c-0.177-0.303,0.18-0.539,0.38-0.715c0.37-0.324,0.816-0.562,1.202-0.871c0.562-0.447,1.049-0.945,0.709-1.816
		c-1.127,0.41-1.989,1.373-3.609,1.525c1.306-1.199,2.183-2.312,2.876-3.922c-0.957,0.643-1.667,1.155-2.519,1.374
		c-0.478,0.122-0.91,0.14-1.182-0.384c-0.104-0.201,0.398-1.566,0.615-1.631c0.352-0.104,0.7-0.203,1.049-0.303
		c-0.062-0.385-0.894,0.125-0.59-0.414c0.312-0.549,0.285-1.188,0.656-1.699c0.171-0.236,0.448-0.612,0.032-0.872
		c-0.366-0.229-0.43,0.241-0.627,0.387c-0.791,0.581-1.592,0.992-2.887,0.378c1.668-0.304,1.777-1.486,2-2.55
		c0.126-0.61-0.26-0.293-0.491-0.177c-0.421,0.14-0.771,0.382-1.082,0.678c0.354-0.334,0.729-0.646,0.827-1.184
		c0.142-0.314,0.549-0.524,0.371-1.06c-0.863,0.408-1.553,1.247-2.728,1.095c0.439-0.869,1.504-1.049,1.727-1.981
		c-0.41-0.024-0.859,0.501-1.12-0.087c-0.396-0.889,0.851-0.689,0.951-1.233c-0.379-0.588-0.804,0.224-1.185-0.172
		c0.363-0.407,0.73-0.819,1.235-1.387c-0.922,0.18-1.438,0.896-2.314,0.776c0.158-0.42,0.317-0.789,0.436-1.172
		c0.064-0.209,0.215-0.646-0.137-0.574c-1.22,0.248-0.212-0.75-0.667-0.99c-0.105,0.367-0.854,0.26-0.724,0.4
		c0.662,0.715-0.157,0.807-0.402,1.041c-0.21,0.203-0.353,0.385-0.271,0.629c0.593,1.746-0.604,0.859-1.214,0.838
		c0.25,0.955,0.976,1.578,1.663,2.229c-0.607,0.465-1.062-0.324-1.594-0.066c0.521,0.988,0.47,1.482-0.157,1.573
		c-1.143,0.164-1.143,0.164-1.762,0.859c0.469,0.036,0.935,0.071,1.703,0.132c-0.881,0.441-1.485,0.747-2.369,1.189
		c1.27,0.121,2.746-1.188,2.981,0.955c-0.651,0.275-1.181-0.262-1.784-0.289c-0.263-0.012-0.531-0.039-0.585,0.295
		c-0.038,0.238,0.155,0.383,0.351,0.461c0.61,0.246,1.229,0.475,2.042,0.783c-1.857,0.754-2.51-1.1-3.818-1.352
		c0.215,0.361-0.123,1.016,0.532,1.068c0.416,0.033,0.5,0.17,0.505,0.506c0.008,0.406-0.297,0.312-0.528,0.324
		c-0.76,0.043-0.671,0.317-0.21,0.723c0.377,0.332,0.596,0.869,1.188,0.919c0.186,0.015,0.324,0.058,0.342,0.272
		c0.022,0.299-0.235,0.264-0.4,0.367c-0.716,0.45-1.387-0.156-2.083-0.148c0.029,0.541,0.728,0.435,0.693,0.882
		c-0.021,0.286,0.39,0.462,0.113,0.801c-0.287,0.353-0.486,0.097-0.741-0.002c-0.171-0.067-0.395-0.265-0.559-0.03
		c-0.17,0.24-0.063,0.491,0.142,0.668c0.254,0.219,0.393,0.489,0.468,0.771c-0.51,0.093-1.014,0.146-1.493,0.279
		c-0.814,0.229-0.95,0.826-0.407,1.42c0.291,0.316,0.666,0.621,0.704,1.264c-0.597-0.314-1.114-0.589-1.666-0.879
		c-0.018,0.639,0.31,1.049,0.569,1.475c0.091,0.146,0.362,0.192,0.474,0.322l-23.484,0.131c0.104-0.154,0.193-0.312,0.178-0.521
		c-0.234,0.131-0.46,0.257-0.686,0.38c-0.1,0.054-0.219,0.118-0.291-0.005c-0.058-0.1,0.061-0.178,0.126-0.235
		c0.122-0.106,0.269-0.185,0.396-0.286c0.184-0.146,0.345-0.311,0.233-0.598c-0.372,0.135-0.655,0.451-1.188,0.502
		c0.429-0.395,0.717-0.762,0.945-1.29c-0.314,0.212-0.548,0.38-0.828,0.452c-0.156,0.039-0.299,0.045-0.388-0.127
		c-0.035-0.065,0.131-0.516,0.202-0.536c0.114-0.033,0.229-0.065,0.345-0.099c-0.021-0.127-0.294,0.039-0.193-0.138
		c0.103-0.181,0.094-0.391,0.216-0.56c0.057-0.077,0.146-0.201,0.011-0.286c-0.12-0.074-0.143,0.079-0.206,0.127
		c-0.261,0.19-0.523,0.327-0.949,0.124c0.548-0.1,0.585-0.488,0.658-0.838c0.041-0.2-0.086-0.098-0.162-0.059
		c-0.197,0.064-0.35,0.196-0.479,0.354c0.134-0.175,0.353-0.278,0.396-0.521c0.046-0.104,0.179-0.174,0.122-0.349
		c-0.284,0.134-0.512,0.409-0.897,0.358c0.146-0.284,0.495-0.344,0.567-0.65c-0.135-0.009-0.282,0.165-0.368-0.029
		c-0.13-0.291,0.279-0.227,0.312-0.404c-0.124-0.193-0.264,0.072-0.389-0.057c0.119-0.135,0.24-0.271,0.406-0.455
		c-0.304,0.057-0.475,0.293-0.762,0.254c0.052-0.139,0.104-0.26,0.144-0.386c0.021-0.069,0.07-0.213-0.045-0.188
		c-0.401,0.082-0.069-0.246-0.22-0.325c-0.035,0.12-0.28,0.086-0.237,0.132c0.217,0.234-0.052,0.266-0.133,0.344
		c-0.069,0.065-0.116,0.125-0.089,0.205c0.194,0.574-0.198,0.283-0.399,0.276c0.083,0.313,0.321,0.519,0.547,0.731
		c-0.199,0.152-0.349-0.106-0.522-0.021c0.171,0.326,0.153,0.488-0.053,0.518c-0.376,0.055-0.376,0.055-0.578,0.283
		c0.152,0.012,0.307,0.023,0.561,0.043c-0.29,0.146-0.489,0.245-0.779,0.393c0.417,0.039,0.902-0.393,0.979,0.313
		c-0.214,0.091-0.389-0.087-0.586-0.097c-0.087-0.002-0.175-0.012-0.192,0.098c-0.013,0.079,0.051,0.127,0.115,0.152
		c0.201,0.08,0.403,0.154,0.671,0.257c-0.611,0.248-0.825-0.36-1.255-0.444c0.07,0.12-0.041,0.334,0.174,0.352
		c0.138,0.013,0.165,0.058,0.167,0.168c0.002,0.133-0.098,0.103-0.174,0.105c-0.25,0.016-0.221,0.104-0.069,0.237
		c0.124,0.108,0.196,0.286,0.392,0.302c0.061,0.006,0.105,0.02,0.111,0.09c0.007,0.1-0.077,0.088-0.132,0.121
		c-0.235,0.148-0.456-0.052-0.686-0.049c0.011,0.178,0.238,0.143,0.229,0.29c-0.008,0.095,0.128,0.151,0.037,0.265
		c-0.095,0.114-0.159,0.03-0.243-0.002c-0.058-0.021-0.13-0.086-0.185-0.01c-0.057,0.079-0.021,0.161,0.047,0.221
		c0.083,0.071,0.129,0.16,0.154,0.252c-0.168,0.031-0.334,0.049-0.492,0.092c-0.269,0.076-0.312,0.272-0.135,0.469
		c0.08,0.087,0.168,0.186,0.205,0.336h-0.122c-0.135-0.07-0.267-0.141-0.397-0.21c-0.002,0.083,0.021,0.147,0.047,0.212
		l-15.044,0.084c-0.004-0.016,0.003-0.025-0.003-0.042c-0.024,0.011-0.046,0.028-0.068,0.043l-0.349,0.002
		c0.39-0.288,0.611-0.657,0.358-1.272c-0.312,0.256-0.628,0.517-1.004,0.826c0.013-0.625,0.649-0.898,0.604-1.492
		c-0.282,0.156-0.555,0.309-0.826,0.457c-0.119,0.063-0.263,0.144-0.351-0.006c-0.068-0.121,0.072-0.215,0.15-0.283
		c0.147-0.129,0.324-0.223,0.478-0.346c0.222-0.178,0.416-0.375,0.28-0.721c-0.447,0.163-0.788,0.544-1.431,0.605
		c0.518-0.477,0.864-0.918,1.139-1.556c-0.379,0.255-0.658,0.458-0.996,0.546c-0.188,0.047-0.36,0.053-0.469-0.154
		c-0.042-0.078,0.158-0.619,0.244-0.646c0.139-0.04,0.277-0.08,0.415-0.118c-0.023-0.154-0.354,0.047-0.231-0.166
		c0.121-0.217,0.111-0.47,0.26-0.673c0.065-0.094,0.177-0.243,0.012-0.346c-0.145-0.089-0.171,0.096-0.248,0.153
		c-0.312,0.229-0.631,0.394-1.144,0.148c0.66-0.12,0.704-0.589,0.793-1.01c0.049-0.241-0.104-0.116-0.195-0.069
		c-0.238,0.077-0.42,0.236-0.578,0.427c0.161-0.209,0.424-0.334,0.479-0.627c0.056-0.125,0.216-0.209,0.146-0.42
		c-0.343,0.161-0.615,0.493-1.081,0.434c0.174-0.344,0.597-0.416,0.685-0.784c-0.163-0.011-0.342,0.198-0.444-0.035
		c-0.156-0.353,0.337-0.272,0.377-0.487c-0.149-0.234-0.317,0.088-0.469-0.068c0.144-0.161,0.29-0.325,0.49-0.549
		c-0.366,0.068-0.571,0.354-0.918,0.308c0.062-0.167,0.126-0.313,0.173-0.466c0.023-0.084,0.085-0.256-0.055-0.229
		c-0.483,0.1-0.084-0.296-0.265-0.392c-0.043,0.146-0.338,0.104-0.286,0.159c0.261,0.281-0.062,0.318-0.16,0.412
		c-0.084,0.08-0.14,0.151-0.106,0.248c0.234,0.691-0.238,0.342-0.48,0.334c0.101,0.377,0.387,0.623,0.658,0.881
		c-0.24,0.185-0.42-0.129-0.631-0.025c0.206,0.393,0.187,0.588-0.062,0.623c-0.453,0.066-0.453,0.066-0.697,0.341
		c0.185,0.015,0.368,0.028,0.676,0.052c-0.351,0.178-0.59,0.297-0.939,0.474c0.503,0.048,1.087-0.474,1.182,0.379
		c-0.259,0.108-0.469-0.104-0.706-0.116c-0.104-0.003-0.211-0.016-0.232,0.117c-0.015,0.095,0.062,0.152,0.14,0.184
		c0.242,0.098,0.485,0.188,0.809,0.311c-0.736,0.299-0.994-0.436-1.512-0.536c0.085,0.146-0.05,0.401,0.21,0.424
		c0.166,0.015,0.197,0.067,0.2,0.201c0.002,0.159-0.117,0.124-0.21,0.128c-0.301,0.018-0.266,0.126-0.083,0.286
		c0.149,0.132,0.236,0.345,0.472,0.362c0.071,0.008,0.128,0.022,0.135,0.108c0.009,0.119-0.093,0.104-0.159,0.146
		c-0.283,0.18-0.549-0.062-0.825-0.06c0.014,0.216,0.288,0.173,0.275,0.351c-0.01,0.113,0.153,0.183,0.044,0.318
		c-0.113,0.139-0.191,0.036-0.293-0.003c-0.069-0.026-0.156-0.104-0.222-0.012c-0.067,0.096-0.025,0.194,0.057,0.265
		c0.1,0.088,0.155,0.194,0.187,0.305c-0.202,0.039-0.402,0.059-0.594,0.111c-0.321,0.092-0.376,0.328-0.161,0.562
		c0.115,0.125,0.265,0.246,0.279,0.5c-0.237-0.125-0.442-0.232-0.66-0.348c-0.007,0.252,0.122,0.414,0.227,0.584
		c0.053,0.084,0.261,0.084,0.195,0.227c-0.058,0.126-0.187,0.227-0.362,0.206c-0.062-0.007-0.139-0.146-0.188-0.003
		c-0.04,0.109,0.069,0.141,0.129,0.211c0.116,0.14,0.259,0.244,0.407,0.341l-57.553,0.319l-21.875-0.641
		c-0.004-0.011-0.004-0.019-0.008-0.027c-0.01,0.009-0.021,0.018-0.031,0.025l-0.929-0.027c0.206-0.299,0.384-0.604,0.352-1.008
		c-0.427,0.237-0.838,0.467-1.251,0.693c-0.178,0.098-0.397,0.216-0.528-0.012c-0.106-0.182,0.107-0.323,0.227-0.43
		c0.223-0.195,0.49-0.336,0.722-0.521c0.337-0.268,0.629-0.566,0.425-1.092c-0.676,0.248-1.194,0.824-2.166,0.916
		c0.783-0.719,1.31-1.387,1.726-2.354c-0.574,0.387-1,0.693-1.511,0.825c-0.287,0.073-0.546,0.083-0.709-0.231
		c-0.062-0.119,0.239-0.938,0.371-0.979c0.21-0.062,0.42-0.122,0.628-0.182c-0.037-0.23-0.536,0.076-0.353-0.248
		c0.186-0.33,0.17-0.713,0.394-1.021c0.103-0.143,0.269-0.365,0.02-0.523c-0.22-0.137-0.258,0.146-0.377,0.232
		c-0.474,0.35-0.956,0.598-1.732,0.229c1.001-0.182,1.067-0.895,1.2-1.531c0.076-0.366-0.155-0.176-0.294-0.105
		c-0.36,0.119-0.638,0.359-0.876,0.648c0.245-0.318,0.643-0.508,0.723-0.953c0.084-0.188,0.329-0.312,0.223-0.635
		c-0.519,0.244-0.932,0.748-1.637,0.656c0.265-0.521,0.903-0.629,1.037-1.188c-0.247-0.015-0.516,0.3-0.672-0.052
		c-0.237-0.534,0.511-0.414,0.57-0.74c-0.227-0.354-0.481,0.135-0.71-0.104c0.218-0.246,0.438-0.492,0.741-0.834
		c-0.553,0.107-0.863,0.539-1.389,0.467c0.094-0.252,0.19-0.473,0.261-0.703c0.039-0.126,0.128-0.389-0.082-0.346
		c-0.732,0.149-0.127-0.449-0.4-0.594c-0.063,0.221-0.512,0.155-0.434,0.241c0.397,0.427-0.095,0.481-0.242,0.625
		c-0.126,0.121-0.212,0.229-0.163,0.377c0.356,1.048-0.362,0.515-0.729,0.502c0.15,0.573,0.586,0.948,0.998,1.339
		c-0.364,0.277-0.636-0.195-0.956-0.041c0.312,0.594,0.281,0.889-0.095,0.944c-0.685,0.101-0.685,0.101-1.057,0.517
		c0.281,0.021,0.56,0.043,1.022,0.078c-0.528,0.266-0.892,0.448-1.421,0.715c0.761,0.072,1.647-0.713,1.789,0.573
		c-0.391,0.166-0.708-0.157-1.071-0.174c-0.158-0.008-0.319-0.022-0.351,0.177c-0.023,0.143,0.093,0.229,0.209,0.276
		c0.368,0.147,0.738,0.284,1.226,0.471c-1.115,0.452-1.506-0.661-2.292-0.812c0.129,0.218-0.074,0.609,0.319,0.643
		c0.25,0.02,0.3,0.104,0.303,0.303c0.005,0.244-0.178,0.188-0.317,0.194c-0.456,0.026-0.403,0.192-0.126,0.435
		c0.226,0.199,0.357,0.521,0.712,0.551c0.111,0.01,0.195,0.035,0.205,0.164c0.014,0.182-0.141,0.158-0.24,0.221
		c-0.43,0.271-0.832-0.094-1.25-0.089c0.017,0.325,0.436,0.261,0.416,0.53c-0.013,0.17,0.234,0.275,0.068,0.479
		c-0.171,0.212-0.292,0.059-0.444-0.001c-0.103-0.041-0.236-0.158-0.334-0.019c-0.102,0.145-0.039,0.295,0.084,0.4
		c0.153,0.133,0.236,0.294,0.281,0.465c-0.307,0.055-0.609,0.088-0.896,0.168c-0.49,0.137-0.571,0.494-0.245,0.852
		c0.092,0.101,0.195,0.199,0.278,0.326l-0.716-0.021c-0.046-0.023-0.092-0.049-0.139-0.072c0,0.024,0.006,0.045,0.007,0.068
		l-8.061-0.236c0.011-0.054,0.021-0.107,0.032-0.16c0.203-0.979-0.414-0.47-0.785-0.281c-0.302,0.101-0.578,0.236-0.838,0.396
		l-0.199-0.006c0.294-0.332,0.539-0.704,0.628-1.2c0.226-0.505,0.877-0.842,0.594-1.697c-1.382,0.653-2.485,1.998-4.368,1.756
		c0.704-1.391,2.409-1.682,2.765-3.176c-0.659-0.041-1.376,0.803-1.795-0.141c-0.631-1.423,1.363-1.104,1.523-1.977
		c-0.604-0.939-1.286,0.356-1.896-0.273c0.583-0.652,1.171-1.312,1.98-2.221c-1.478,0.287-2.306,1.434-3.709,1.242
		c0.254-0.672,0.508-1.264,0.697-1.877c0.104-0.334,0.344-1.035-0.219-0.92c-1.952,0.397-0.339-1.203-1.068-1.586
		c-0.169,0.588-1.366,0.418-1.158,0.644c1.06,1.144-0.252,1.29-0.645,1.669c-0.336,0.322-0.565,0.611-0.433,1.003
		c0.95,2.796-0.967,1.381-1.944,1.343c0.401,1.529,1.562,2.53,2.664,3.569c-0.973,0.745-1.698-0.521-2.55-0.108
		c0.831,1.588,0.749,2.377-0.255,2.521c-1.648,0.236-1.818,0.27-2.557,1.084l-21.06-0.618c0.01-0.076,0.019-0.151,0.036-0.235
		c-0.156,0.094-0.306,0.155-0.458,0.225l-3.125-0.092c-0.43-0.19-0.853-0.422-1.273-0.662c-0.112-0.062-0.354-0.072-0.27-0.301
		c0.035-0.093,0.226-0.224,0.231-0.219c0.615,0.588,1.344,0.012,2.002,0.206c1.865,0.556,3.083-0.112,3.085-1.752
		c1.321,1.125,1.439-0.701,2.285-0.854c-0.761,0.299-1.435-0.838-2.207-0.09c-0.146,0.144-0.343-0.086-0.371-0.19
		c-0.198-0.755-0.545-0.313-0.852-0.119c-1.246,0.798-3.232,0.291-4.08-1.047c0.894-0.339,2.067,1.399,2.788-0.375
		c0.477,0.092,0.799,0.793,1.37,0.481c0.237-0.129-0.381-0.33-0.188-0.627c1.479,0.625,1.643-1.332,2.828-1.295
		c-0.998-0.201-1.881-1.009-2.882-0.311c-0.152,0.105-0.309,0.119-0.412-0.04c-0.69-1.052-1.472-0.964-2.45-0.351
		c-0.366,0.229-1.109,0.479-1.253-0.439c0.02-0.398-0.079-0.573-0.229-0.648c0.226,0.057,0.45,0.077,0.666-0.086
		c0.171-0.748,0.256-0.812,0.456-0.539c0.506,0.686,0.951,1.211,1.6,0.155c0.004-0.006,0.122,0.067,0.19,0.093
		c0.699,0.256,1.215-0.139,1.878-0.523c-1.219-0.771-2.334-1.522-3.626-1.991c-0.011-0.63,0.89-0.345,0.932-0.925
		c-0.411-0.272-1.01-0.107-1.442-0.615c0.771-0.309,1.624-0.33,2.138-0.998c-0.136-0.461-0.72-0.244-0.909-0.583
		c0.139-0.509,0.737-0.66,0.818-1.215c-0.303-0.062-0.587-0.123-0.856-0.179c0.025-0.447,0.564-0.653,0.357-1.114
		c-0.591-0.062-0.837,0.842-1.193,0.649c-1.024-0.553-0.971,0.348-1.185,0.783c-0.387,0.795-0.943,1.359-1.872,1.773
		c-0.084-0.834-0.17-1.58-0.231-2.329c-0.034-0.415,0.456-0.868,0.547-0.718c0.66,1.104,1.22-0.336,1.848,0.152
		c-0.212-0.748-0.81-0.879-1.258-1.222c0.623-0.202,1.239,0.144,2.022-0.299c-1.448-0.271-0.856-0.854-0.286-1.44
		c-1.274,0.23-2.431,0.35-2.883,1.739c-0.379-1.497,0.956-2.228,1.276-3.354c-0.688-0.23-0.756,0.561-1.243,0.614
		c-0.369-0.553,0.117-1.419-0.677-1.915c-0.174,0.857,0.038,1.635-0.263,2.404c-0.392-0.312-0.743-0.594-1.212-0.967
		c0.032,0.863,0.583,1.275,0.903,1.805c0.343,0.562,0.358,0.746,0.147,1.723c-0.397-0.361-0.394-0.865-0.508-1.322
		c-0.056-0.225-0.284-0.614-0.378-0.453c-0.507,0.861-1.014-0.047-1.561,0.043c-0.074,0.855,1.189,1.439,0.476,2.4
		c-0.077,0.103,0.303,0.244,0.477,0.154c0.425-0.219,0.476,0.008,0.452,0.338c-0.032,0.465-0.321,0.153-0.506,0.16
		c-0.201,0.008-0.407-0.361-0.617,0.029c0.04,0.094,0.109,0.197,0.127,0.309c0.044,0.288,0.751,0.348,0.239,0.846
		c-0.371,0.359-0.625,0.145-0.935-0.02c-0.516-0.27-1.035-0.533-1.547-0.796c-0.46,0.601,0.967,1.155-0.089,1.668
		c-0.021,0.01,0.386,0.067,0.48,0.192c0.278,0.367,1.397,0.771,0.021,1.172c-0.176,0.052-0.31,0.178-0.277,0.334
		c0.027,0.127,0.214,0.338,0.286,0.32c0.769-0.181,1.49,0.475,2.39-0.056c-0.218,0.351-0.323,0.515-0.427,0.679
		c0.618-0.076,1.002,0.769,1.69,0.428c0.192-0.096,0.408-0.562,0.589,0.011c0.123,0.388-0.12,0.458-0.432,0.522
		c-0.886,0.188-1.734,0.229-2.569-0.24c-0.329-0.184-0.921-0.594-1.072-0.309c-0.526,1.002-0.885,0.072-1.274-0.039
		c-0.369-0.107-0.971-0.607-1.024-0.438c-0.31,0.968-1.276,0.511-1.838,0.889c0.264,0.955,1.908,0.148,1.742,1.489
		c0.194-0.013,0.404,0.017,0.578-0.05c0.191-0.071,0.343-0.203,0.468,0.072c0.395,0.86,1.307,0.683,1.986,0.93
		c0.871,0.314,1.606-0.551,2.486-0.473c0.152-0.113,0.35-0.068,0.511-0.152c-0.06,0.152-0.208,0.242-0.268,0.394
		c-0.501,0.327-1.023,0.63-1.502,0.986c-0.674,0.506-1.297,0.151-1.746-0.233c-0.688-0.594-0.669,0.705-1.148,0.34
		c-0.679-0.521-1.224,0.32-1.871,0.146c-0.251-0.066-0.656-0.133-0.696,0.229c-0.031,0.267,0.135,0.744,0.327,0.812
		c0.586,0.211,0.917,0.859,1.571,0.888c0.408,0.017,0.691,0.245,0.567,0.575c-0.146,0.393-0.462-0.004-0.708-0.027
		c-0.696-0.068-1.296-0.033-0.794,0.938c0.051,0.101-0.045,0.276-0.129,0.7c-0.963-1.586-1.833,0.261-2.782-0.266
		c1.363,1.545,3.62,1.754,4.901,3.35l-24.155-0.709c0.009-0.133,0.011-0.27,0-0.411c-0.238,0.132-0.469,0.261-0.704,0.391
		l-2.569-0.075c0.436-0.32,0.898-0.609,1.321-0.949c0.793-0.629,1.48-1.332,1-2.564c-1.59,0.581-2.807,1.938-5.093,2.154
		c1.841-1.692,3.08-3.264,4.058-5.534c-1.35,0.909-2.353,1.63-3.554,1.94c-0.674,0.172-1.285,0.193-1.668-0.545
		c-0.146-0.281,0.562-2.209,0.871-2.302c0.494-0.146,0.988-0.286,1.478-0.427c-0.087-0.542-1.261,0.18-0.83-0.584
		c0.438-0.775,0.4-1.676,0.925-2.398c0.241-0.334,0.631-0.861,0.046-1.23c-0.518-0.322-0.607,0.342-0.886,0.546
		c-1.115,0.821-2.247,1.403-4.074,0.534c2.355-0.426,2.51-2.1,2.822-3.6c0.179-0.861-0.364-0.412-0.692-0.248
		c-0.586,0.193-1.075,0.529-1.509,0.939c0.495-0.467,1.014-0.906,1.149-1.657c0.198-0.44,0.774-0.735,0.523-1.491
		c-1.219,0.575-2.191,1.762-3.85,1.545c0.623-1.227,2.125-1.48,2.438-2.797c-0.58-0.035-1.212,0.705-1.581-0.121
		c-0.557-1.256,1.201-0.975,1.341-1.742c-0.533-0.832-1.132,0.315-1.669-0.242c0.512-0.576,1.031-1.157,1.743-1.959
		c-1.301,0.253-2.03,1.266-3.266,1.098c0.222-0.592,0.448-1.113,0.613-1.654c0.09-0.297,0.302-0.912-0.192-0.812
		c-1.721,0.351-0.3-1.06-0.941-1.396c-0.149,0.517-1.205,0.364-1.021,0.566c0.934,1.003-0.223,1.135-0.568,1.471
		c-0.296,0.283-0.498,0.539-0.382,0.885c0.837,2.463-0.852,1.211-1.713,1.182c0.353,1.35,1.377,2.229,2.347,3.146
		c-0.856,0.653-1.496-0.461-2.247-0.096c0.734,1.396,0.662,2.09-0.224,2.221c-1.611,0.234-1.611,0.234-2.485,1.215
		c0.661,0.052,1.317,0.1,2.403,0.185c-1.243,0.625-2.097,1.056-3.343,1.683c1.789,0.17,3.874-1.68,4.207,1.348
		c-0.919,0.391-1.666-0.372-2.518-0.409c-0.371-0.019-0.75-0.056-0.826,0.416c-0.054,0.335,0.219,0.54,0.493,0.649
		c0.864,0.35,1.736,0.67,2.883,1.106c-2.621,1.063-3.541-1.556-5.388-1.907c0.303,0.512-0.175,1.434,0.751,1.51
		c0.586,0.047,0.706,0.242,0.711,0.713c0.012,0.574-0.419,0.441-0.745,0.457c-1.072,0.062-0.947,0.451-0.296,1.02
		c0.531,0.469,0.84,1.227,1.674,1.299c0.262,0.02,0.459,0.079,0.482,0.385c0.033,0.426-0.332,0.369-0.565,0.518
		c-1.01,0.636-1.957-0.219-2.939-0.209c0.04,0.766,1.024,0.613,0.977,1.247c-0.03,0.401,0.551,0.649,0.16,1.125
		c-0.403,0.497-0.686,0.138-1.045-0.003c-0.241-0.096-0.556-0.371-0.787-0.043c-0.24,0.34-0.09,0.695,0.198,0.943
		c0.359,0.312,0.555,0.69,0.661,1.09c-0.721,0.131-1.432,0.207-2.108,0.396c-0.546,0.152-0.869,0.426-0.983,0.756l-7.535-0.221
		c0.051-0.025,0.099-0.059,0.151-0.078c1.323-0.529,1.241-1.102-0.085-1.693c-0.514-0.229-1.028-0.666-1.721-0.268
		c-0.156,0.091-0.576,0.329-0.823-0.21c-0.396-0.865-0.653-0.89-1.431-0.498c-1.825,0.917-4.482,0.385-5.375-1.192
		c2.143,0.688,4.115-0.377,6.166-0.177c0.179,0.019,0.54-0.126,0.547-0.213c0.116-1.351,1.372-1.924,2.5-2.856
		c-1.503-0.068-2.428-1.353-3.862-0.64c-1.119,0.558-1.4,0.013-1.164-1.095c-2.502,1.38-4.5,0.388-6.483-0.646
		c-0.149-0.076-0.473-0.089-0.36-0.367c0.046-0.113,0.301-0.272,0.309-0.267c0.821,0.718,1.794,0.013,2.674,0.251
		c2.491,0.678,4.117-0.138,4.12-2.143c1.764,1.375,1.922-0.856,3.051-1.043c-1.016,0.363-1.916-1.024-2.947-0.11
		c-0.195,0.175-0.458-0.104-0.495-0.233c-0.265-0.922-0.729-0.385-1.138-0.146c-1.664,0.976-4.316,0.354-5.448-1.279
		c1.194-0.413,2.76,1.71,3.723-0.458c0.636,0.111,1.067,0.969,1.829,0.59c0.317-0.158-0.509-0.404-0.251-0.767
		c1.975,0.763,2.194-1.629,3.776-1.583c-1.333-0.246-2.513-1.232-3.849-0.38c-0.203,0.13-0.412,0.146-0.55-0.05
		c-0.921-1.283-1.966-1.178-3.271-0.428c-0.489,0.28-1.482,0.584-1.674-0.537c0.026-0.487-0.106-0.701-0.307-0.795
		c0.301,0.07,0.6,0.096,0.889-0.104c0.229-0.914,0.342-0.99,0.609-0.659c0.676,0.839,1.27,1.481,2.137,0.19
		c0.004-0.006,0.162,0.082,0.253,0.113c0.934,0.312,1.623-0.168,2.508-0.64c-1.627-0.942-3.117-1.862-4.842-2.437
		c-0.015-0.77,1.188-0.422,1.244-1.129c-0.549-0.334-1.349-0.133-1.925-0.752c1.03-0.377,2.168-0.404,2.855-1.222
		c-0.182-0.563-0.961-0.298-1.214-0.712c0.185-0.621,0.983-0.807,1.093-1.484c-0.404-0.076-0.784-0.149-1.144-0.219
		c0.034-0.547,0.754-0.799,0.478-1.361c-0.79-0.074-1.119,1.027-1.594,0.793c-1.368-0.674-1.297,0.426-1.582,0.959
		c-0.516,0.971-1.258,1.662-2.499,2.168c-0.112-1.021-0.227-1.932-0.309-2.848c-0.044-0.507,0.609-1.062,0.731-0.877
		c0.881,1.352,1.629-0.41,2.468,0.186c-0.283-0.914-1.081-1.072-1.68-1.49c0.832-0.248,1.655,0.174,2.7-0.365
		c-1.934-0.332-1.144-1.044-0.382-1.761c-1.701,0.28-3.247,0.427-3.851,2.125c-0.505-1.829,1.277-2.721,1.704-4.1
		c-0.918-0.282-1.009,0.684-1.66,0.751c-0.493-0.676,0.156-1.734-0.904-2.342c-0.232,1.05,0.05,2-0.351,2.939
		c-0.523-0.383-0.992-0.725-1.619-1.182c0.043,1.056,0.778,1.56,1.206,2.207c0.458,0.688,0.478,0.912,0.197,2.104
		c-0.531-0.441-0.526-1.057-0.679-1.615c-0.075-0.273-0.379-0.751-0.504-0.555c-0.678,1.054-1.354-0.057-2.084,0.053
		c-0.098,1.045,1.588,1.76,0.635,2.934c-0.102,0.125,0.405,0.301,0.637,0.189c0.568-0.268,0.636,0.01,0.604,0.413
		c-0.043,0.567-0.429,0.188-0.676,0.194c-0.269,0.01-0.543-0.439-0.824,0.037c0.053,0.115,0.146,0.24,0.17,0.377
		c0.059,0.353,1.002,0.424,0.319,1.031c-0.495,0.441-0.835,0.178-1.249-0.021c-0.523-0.25-1.046-0.493-1.568-0.738
		c0.166-0.633,0.134-1.355-0.202-2.218c-3.025,1.098-5.336,3.682-9.684,4.09c3.499-3.214,5.851-6.207,7.716-10.525
		c-2.565,1.727-4.471,3.102-6.757,3.69c-1.282,0.329-2.446,0.372-3.172-1.029c-0.28-0.542,1.071-4.206,1.653-4.377
		c0.939-0.276,1.88-0.544,2.812-0.813c-0.164-1.029-2.394,0.335-1.579-1.112c0.831-1.474,0.766-3.187,1.761-4.562
		c0.458-0.633,1.203-1.641,0.086-2.339c-0.98-0.612-1.152,0.65-1.682,1.039c-2.121,1.561-4.272,2.664-7.747,1.014
		c4.475-0.818,4.773-3.989,5.366-6.843c0.34-1.639-0.693-0.786-1.315-0.47c-1.121,0.371-2.056,1.012-2.885,1.795
		c0.946-0.888,1.94-1.725,2.199-3.155c0.379-0.847,1.47-1.411,0.995-2.844c-2.315,1.095-4.164,3.347-7.318,2.938
		c1.18-2.33,4.036-2.815,4.633-5.319c-1.104-0.068-2.307,1.344-3.008-0.236c-1.058-2.383,2.283-1.85,2.553-3.309
		c-1.013-1.576-2.154,0.597-3.176-0.46c0.976-1.095,1.962-2.2,3.317-3.721c-2.476,0.483-3.864,2.402-6.215,2.083
		c0.426-1.125,0.852-2.118,1.169-3.145c0.173-0.561,0.575-1.734-0.367-1.542c-3.271,0.666-0.567-2.015-1.79-2.659
		c-0.283,0.986-2.289,0.7-1.939,1.079c1.775,1.914-0.423,2.16-1.081,2.796c-0.562,0.542-0.946,1.026-0.725,1.681
		c1.592,4.685-1.62,2.312-3.258,2.249c0.673,2.562,2.617,4.239,4.463,5.98c-1.63,1.249-2.846-0.871-4.272-0.181
		c1.393,2.658,1.255,3.981-0.428,4.224c-3.066,0.443-3.066,0.443-4.723,2.307c1.252,0.1,2.505,0.196,4.57,0.356
		c-2.365,1.188-3.99,2.005-6.358,3.194c3.401,0.322,7.369-3.189,8,2.564c-1.746,0.739-3.169-0.704-4.788-0.776
		c-0.703-0.031-1.425-0.106-1.57,0.788c-0.104,0.645,0.417,1.029,0.941,1.241c1.638,0.66,3.296,1.27,5.476,2.101
		c-4.985,2.022-6.729-2.949-10.243-3.629c0.576,0.976-0.332,2.729,1.429,2.872c1.116,0.09,1.34,0.457,1.354,1.354
		c0.019,1.092-0.8,0.842-1.419,0.876c-2.039,0.114-1.8,0.851-0.563,1.935c1.013,0.889,1.6,2.329,3.184,2.463
		c0.497,0.042,0.872,0.151,0.916,0.731c0.062,0.807-0.629,0.707-1.071,0.986c-1.924,1.211-3.723-0.416-5.592-0.396
		c0.08,1.451,1.949,1.166,1.858,2.368c-0.058,0.765,1.048,1.238,0.306,2.148c-0.771,0.943-1.304,0.26-1.986-0.006
		c-0.463-0.182-1.058-0.709-1.5-0.084c-0.457,0.646-0.172,1.32,0.379,1.793c0.681,0.588,1.052,1.314,1.255,2.07
		c-1.369,0.25-2.718,0.391-4.006,0.752c-2.19,0.613-2.552,2.217-1.094,3.809c0.78,0.852,1.787,1.67,1.892,3.393
		c-1.605-0.847-2.994-1.58-4.474-2.359c-0.046,1.716,0.829,2.816,1.528,3.955c0.353,0.572,1.763,0.568,1.327,1.529
		c-0.388,0.854-1.26,1.531-2.462,1.402c-0.412-0.043-0.928-0.988-1.267-0.027c-0.264,0.747,0.473,0.961,0.872,1.438
		c2.122,2.538,5.374,3.532,7.87,5.668c-3.198,1.651-5.743-1.037-8.799-0.783c0.334,0.371,0.604,0.802,0.818,1.261
		c-2.333-0.076-4.539-0.304-6.587-1.604c1.504-1.492,3,0.538,4.7-0.397c1.782-0.982,1.467-2.595,2.229-3.842
		c-2.148-0.193-4.43,1.801-6.567-0.379c0.785-0.574,1.48,0.154,2.069-0.139c0.406-0.432-1.479-1.262,0.325-1.389
		c0.585-0.041,0.308-0.65,0.348-0.918c0.099-0.66-0.493-0.297-0.772-0.309c-1.927-0.072-3.87,0.035-5.743-0.551
		c-0.235-0.073-0.938,0.082-0.622-0.541c0.106-0.211,0.245-0.965,0.939-0.459c1.067,0.777,2.023-0.117,2.946-0.272
		c0.166-0.646-0.671-0.746-0.582-1.499c1.66,1.042,2.574-0.615,3.812-1.081c1.623-0.606,1.564-1.36,0.017-2.222
		c-0.599-0.333-1.184-0.938-2.043-0.46c-0.192,0.106-0.712,0.396-0.972-0.328c-0.413-1.159-0.719-1.207-1.678-0.745
		c-2.251,1.083-5.397,0.214-6.355-1.908c2.518,1.041,4.956-0.229,7.399,0.166c0.213,0.036,0.656-0.129,0.67-0.242
		c0.234-1.761,1.779-2.431,3.198-3.576c-1.796-0.188-2.812-1.928-4.582-1.086c-1.378,0.656-1.677-0.076-1.317-1.51
		c-3.094,1.643-5.418,0.217-7.721-1.266c-0.174-0.11-0.561-0.146-0.406-0.504c0.063-0.146,0.38-0.338,0.389-0.329
		c0.933,0.993,2.148,0.132,3.185,0.501c2.936,1.049,4.943,0.086,5.087-2.537c2.017,1.915,2.364-0.998,3.729-1.169
		c-1.242,0.411-2.222-1.465-3.522-0.334c-0.246,0.215-0.542-0.168-0.577-0.339c-0.252-1.222-0.846-0.55-1.353-0.263
		c-2.062,1.168-5.196,0.186-6.436-2.028c1.459-0.462,3.186,2.417,4.493-0.358c0.754,0.187,1.21,1.335,2.149,0.889
		c0.391-0.185-0.582-0.562-0.247-1.019c2.312,1.126,2.744-1.99,4.635-1.828c-1.579-0.409-2.923-1.775-4.583-0.746
		c-0.252,0.157-0.504,0.163-0.655-0.1c-1.014-1.742-2.273-1.668-3.89-0.772c-0.606,0.337-1.817,0.668-1.968-0.812
		c0.062-0.597-0.054-0.896-0.262-1.042c0.339,0.101,0.68,0.137,1.023-0.095c0.339-1.182,0.479-1.275,0.776-0.824
		c0.75,1.14,1.417,2.021,2.546,0.388c0.006-0.008,0.188,0.118,0.295,0.164c1.097,0.47,1.957-0.117,3.051-0.673
		c-1.883-1.342-3.604-2.64-5.629-3.502c0.037-1.008,1.454-0.475,1.57-1.397c-0.633-0.475-1.606-0.261-2.253-1.111
		c1.26-0.426,2.626-0.387,3.506-1.412c-0.177-0.749-1.129-0.453-1.403-1.01c0.265-0.801,1.235-0.993,1.414-1.874
		c-0.479-0.127-0.928-0.247-1.355-0.361c0.079-0.712,0.96-0.996,0.668-1.75c-0.941-0.148-1.413,1.273-1.965,0.935
		c-1.591-0.97-1.583,0.473-1.963,1.152c-0.688,1.236-1.625,2.095-3.147,2.678c-0.062-1.344-0.135-2.545-0.169-3.748
		c-0.018-0.667,0.805-1.351,0.938-1.1c0.96,1.823,1.98-0.434,2.943,0.402c-0.274-1.215-1.219-1.475-1.907-2.061
		c1.014-0.271,1.97,0.334,3.261-0.304c-2.293-0.561-1.296-1.439-0.334-2.331c-2.058,0.259-3.92,0.349-4.763,2.533
		c-0.477-2.426,1.723-3.478,2.332-5.255c-1.08-0.428-1.257,0.831-2.042,0.875c-0.542-0.915,0.309-2.258-0.917-3.123
		c-0.352,1.358-0.081,2.621-0.627,3.825c-0.601-0.535-1.139-1.013-1.857-1.652c-0.023,1.385,0.821,2.092,1.289,2.966
		c0.5,0.932,0.509,1.225,0.087,2.767c-0.605-0.613-0.556-1.416-0.699-2.157c-0.07-0.365-0.401-1.009-0.565-0.759
		c-0.887,1.335-1.619-0.163-2.5-0.066c-0.192,1.362,1.778,2.405,0.553,3.881c-0.132,0.158,0.463,0.417,0.749,0.29
		c0.7-0.313,0.761,0.051,0.694,0.579c-0.091,0.74-0.527,0.217-0.824,0.211c-0.322-0.007-0.619-0.612-0.99-0.006
		c0.055,0.154,0.158,0.326,0.177,0.505c0.046,0.464,1.171,0.62,0.311,1.371c-0.625,0.546-1.014,0.179-1.495-0.107
		c-0.803-0.477-1.61-0.943-2.406-1.41c-0.789,0.92,1.447,1.933-0.288,2.663c-0.033,0.013,0.612,0.141,0.752,0.349
		c0.414,0.61,2.169,1.354-0.068,1.876c-0.286,0.069-0.511,0.258-0.472,0.511c0.033,0.206,0.313,0.559,0.429,0.538
		c1.246-0.223,2.342,0.887,3.828,0.119c-0.379,0.539-0.561,0.793-0.741,1.048c0.994-0.067,1.538,1.313,2.668,0.829
		c0.315-0.135,0.701-0.863,0.94,0.067c0.163,0.632-0.231,0.723-0.736,0.801c-1.434,0.222-2.795,0.214-4.089-0.606
		c-0.512-0.324-1.422-1.03-1.688-0.586c-0.929,1.556-1.423,0.039-2.035-0.174c-0.581-0.202-1.5-1.054-1.601-0.788
		c-0.579,1.521-2.086,0.709-3.018,1.265c0.34,1.55,3.04,0.402,2.658,2.533c0.311-0.004,0.645,0.058,0.93-0.03
		c0.311-0.098,0.565-0.295,0.742,0.156c0.557,1.414,2.033,1.206,3.098,1.659c1.366,0.58,2.617-0.743,4.018-0.541
		c0.253-0.169,0.567-0.081,0.831-0.199c-0.107,0.238-0.352,0.368-0.462,0.604c-0.83,0.48-1.691,0.918-2.489,1.449
		c-1.122,0.75-2.088,0.132-2.773-0.526c-1.051-1.008-1.132,1.072-1.867,0.444c-1.042-0.891-1.986,0.408-3.005,0.074
		c-0.397-0.129-1.038-0.268-1.133,0.304c-0.073,0.424,0.151,1.203,0.453,1.328c0.919,0.387,1.391,1.456,2.437,1.555
		c0.651,0.062,1.084,0.454,0.858,0.97c-0.267,0.615-0.739-0.047-1.131-0.107c-1.108-0.168-2.07-0.165-1.352,1.435
		c0.074,0.164-0.096,0.438-0.267,1.11c-1.404-2.62-2.954,0.257-4.428-0.667c2.259,2.857,6.415,3.178,8.103,6.65
		c-2.578,1.435-5.721-0.504-8.417,0.791c1.115,2.062,2.863,3.294,5.002,4.163c-2.116,1.04-4.208-0.753-5.985,0.282
		c0.595,1.6,2.324,1.79,3.287,2.886c0.899,1.021,1.673,0.909,2.575,0.141c1.189-0.543,0.355,0.697,0.755,0.853
		c0.655,0.907-0.241,0.881-0.678,1.073c-2.732,1.197-5.925,0.731-8.513,2.506c1.36,1.229,2.755,2.998,4.688,3.08
		c1.045,0.041,2.478,1.673,3.472-0.164c1.348,0.566,2.68-0.584,4.503-0.062c-2.155,1.041-4.04,1.43-5.97,1.77
		c0.272,0.976,1.356,0.646,1.916,1.367c-2.899,0.49-5.816,0.162-8.69,0.332c-0.062-0.187-0.113-0.365-0.188-0.558
		c-0.334,0.222-0.674,0.445-1.01,0.668c-0.607,0.071-1.214,0.163-1.816,0.31c0.092,0.306,0.275,0.461,0.484,0.572
		c-1.917,1.271-3.917,2.592-6.182,4.092c0.347-4.614,5.662-6.336,5.521-10.725c-2.369,1.023-4.644,2.018-6.931,2.99
		c-0.988,0.419-2.198,0.938-2.846-0.207c-0.516-0.915,0.673-1.544,1.346-2.018c1.253-0.879,2.732-1.492,4.032-2.322
		c1.884-1.205,3.541-2.566,2.584-5.17c-3.712,0.99-6.652,3.644-11.914,3.795c4.41-3.258,7.424-6.354,9.933-10.921
		c-3.195,1.705-5.573,3.072-8.363,3.557c-1.565,0.272-2.97,0.24-3.759-1.33c-0.305-0.608,1.545-4.499,2.257-4.646
		c1.148-0.236,2.297-0.465,3.436-0.695c-0.135-1.129-2.904,0.204-1.834-1.314c1.089-1.546,1.115-3.412,2.397-4.84
		c0.59-0.658,1.549-1.703,0.245-2.536c-1.144-0.731-1.427,0.629-2.088,1.016c-2.65,1.554-5.308,2.608-9.394,0.583
		c5.44-0.589,5.992-4.016,6.879-7.077c0.509-1.759-0.788-0.9-1.556-0.599c-1.178,0.281-2.207,0.783-3.137,1.421
		c1.044-0.787,2.044-1.6,2.393-2.945c0.507-0.895,1.856-1.435,1.371-3.024c-2.855,1.035-5.218,3.358-8.994,2.703
		c1.562-2.453,5.033-2.788,5.903-5.469c-1.326-0.148-2.86,1.306-3.609-0.458c-1.13-2.661,2.862-1.858,3.275-3.425
		c-1.124-1.781-2.631,0.504-3.798-0.713c1.241-1.125,2.497-2.259,4.222-3.821c-3.011,0.358-4.8,2.352-7.613,1.846
		c0.581-1.194,1.154-2.245,1.598-3.339c0.243-0.598,0.798-1.846-0.349-1.7c-3.98,0.503-0.562-2.228-1.996-3.01
		c-0.401,1.053-2.8,0.607-2.402,1.042c2.023,2.199-0.64,2.319-1.472,2.966c-0.71,0.551-1.202,1.051-0.974,1.778
		c1.634,5.198-2.092,2.405-4.061,2.226c0.656,2.83,2.896,4.783,5.014,6.799c-2.039,1.248-3.375-1.138-5.136-0.483
		c1.517,2.982,1.271,4.411-0.771,4.561c-3.721,0.276-3.721,0.276-5.829,2.19c1.502,0.192,3.005,0.382,5.484,0.694
		c-2.921,1.132-4.928,1.911-7.853,3.044c4.078,0.579,9.07-2.971,9.482,3.324c-2.149,0.686-3.776-0.978-5.721-1.165
		c-0.845-0.081-1.71-0.211-1.94,0.75c-0.165,0.693,0.44,1.147,1.059,1.412c1.933,0.828,3.894,1.601,6.469,2.651
		c-6.128,1.863-7.927-3.657-12.12-4.632c0.635,1.1-0.565,2.944,1.547,3.217c1.339,0.173,1.586,0.586,1.549,1.563
		c-0.043,1.188-1.014,0.861-1.762,0.857c-2.463-0.013-2.219,0.804-0.796,2.065c1.167,1.034,1.786,2.639,3.687,2.891
		c0.597,0.079,1.042,0.222,1.06,0.856c0.025,0.881-0.801,0.726-1.351,1c-2.391,1.187-4.459-0.702-6.712-0.807
		c0.008,1.583,2.277,1.397,2.095,2.699c-0.116,0.827,1.187,1.415,0.238,2.354c-0.986,0.976-1.586,0.195-2.393-0.14
		c-0.547-0.229-1.231-0.842-1.802-0.19c-0.59,0.67-0.287,1.422,0.348,1.975c0.784,0.684,1.187,1.498,1.386,2.334
		c-1.665,0.18-3.297,0.241-4.872,0.548c-2.675,0.521-3.208,2.236-1.548,4.065C2.701,57.203,3.864,58.16,3.885,60.039z
		 M585.361,63.662c0.577,0.258,1.182,0.448,1.861,0.008c0.718-0.465,0.813,0.289,0.908,0.506c0.28,0.636-0.409,0.443-0.646,0.504
		c-1.049,0.268-2.107,0.318-3.17,0.309C584.741,64.583,585.113,64.151,585.361,63.662z M583.562,67.755
		c-1.263,1.154-2.498,0.99-3.722,0.642c0.148-0.129,0.299-0.25,0.425-0.36c0.45-0.394,0.943-0.736,1.441-1.074
		c-0.175,0.193-0.327,0.388-0.193,0.547C582.084,67.83,582.812,67.143,583.562,67.755z M580.305,59.89
		c0.182,0.209,0.481,0.415,0.939,0.615c0.706,0.309,1.281,1.018,1.979,1.361c-2.132,1.209-4.248,2.741-7.512,3.049
		C577.52,63.253,579.018,61.648,580.305,59.89z M528.689,36.019c0.002,0,0.005,0.001,0.007,0.002
		c0.38-0.281,0.774-0.172,1.171-0.055c-0.371-0.019-0.833,0.138-1.171,0.055c-0.001,0.001-0.002,0.001-0.003,0.001
		C528.691,36.021,528.69,36.02,528.689,36.019c-0.027-0.007-0.056-0.012-0.079-0.022c-0.527-0.404-0.868-0.934-1.212-1.952
		C527.779,35.069,528.115,35.631,528.689,36.019z M519.062,71.903c-0.695,0.187-1.348,0.38-1.979,0.562
		c-1.087,0.106-2.31-0.096-3.767-0.789c1.083-0.197,1.917-0.535,2.573-0.971c1.019,0.282,2.092,0.656,3.244,1.162
		C519.112,71.878,519.088,71.892,519.062,71.903z M514.67,65.985c0.439-0.409,0.874-0.817,1.234-1.288
		c0.065,0.098,0.146,0.172,0.233,0.229c-0.522,0.3-1.005,0.654-1.453,1.059C514.681,65.984,514.676,65.985,514.67,65.985z
		 M521.025,62.591c-1.743,0.961-3.306,1.402-4.89,1.779c0.177-0.273,0.322-0.572,0.429-0.902c0.16-0.131,0.312-0.32,0.444-0.604
		C518.24,63.306,519.373,62.214,521.025,62.591z M517.617,57.019c0.629,0.779-0.172,0.799-0.553,0.99
		c-0.809,0.406-1.673,0.643-2.549,0.848c0.203-0.32,0.379-0.665,0.478-1.076c-1.104-0.068-2.308,1.344-3.008-0.236
		c-0.62-1.397,0.271-1.793,1.172-2.174c0.515,0.267,1.039,0.514,1.439,0.924c0.853,0.867,1.537,0.729,2.306,0
		C517.938,55.751,517.253,56.901,517.617,57.019z M513.468,51.414c0.946,0.873,2.091,1.478,3.386,1.924
		c-1.839,1.029-3.791-0.471-5.327,0.539c0.011,0.023,0.024,0.041,0.036,0.063c-0.066-0.043-0.134-0.097-0.199-0.165
		C512.02,53.037,512.691,52.285,513.468,51.414z M511.165,61.994c0.47,0.373,0.962,0.709,1.491,0.928
		c-0.694,0.201-1.447,0.287-2.296,0.179C510.577,62.671,510.86,62.32,511.165,61.994z M481.1,64.445
		c0.008,0.001,0.015,0.002,0.021,0.004c0.248-0.145,0.508-0.084,0.768-0.021c-0.24-0.018-0.544,0.062-0.768,0.021
		c-0.004,0.002-0.008,0.002-0.011,0.004C481.106,64.451,481.104,64.447,481.1,64.445c-0.014-0.004-0.029-0.003-0.043-0.007
		c-0.34-0.21-0.561-0.483-0.782-1.013C480.518,63.953,480.734,64.244,481.1,64.445z M236.365,70.221
		c0.006,0.002,0.014,0.002,0.02,0.004c0.271-0.194,0.554-0.11,0.836-0.026c-0.262-0.023-0.592,0.084-0.836,0.026
		c-0.003,0.002-0.006,0.003-0.01,0.005C236.372,70.227,236.369,70.224,236.365,70.221c-0.015-0.005-0.033-0.003-0.048-0.009
		c-0.368-0.282-0.606-0.651-0.846-1.363C235.735,69.56,235.97,69.951,236.365,70.221z M159.265,57.596
		c0.008,0.002,0.018,0.003,0.027,0.005c0.361-0.238,0.738-0.137,1.115-0.032c-0.349-0.028-0.79,0.103-1.115,0.032
		c-0.004,0.003-0.009,0.003-0.013,0.006C159.274,57.604,159.27,57.599,159.265,57.596c-0.021-0.005-0.045-0.005-0.064-0.011
		c-0.492-0.346-0.81-0.797-1.13-1.666C158.424,56.789,158.737,57.266,159.265,57.596z M149.137,62.203
		c-0.127-0.062-0.257-0.132-0.375-0.143c-0.082-0.008-0.161-0.012-0.239-0.018c0.032-0.238,0.079-0.471,0.136-0.694
		c0.092,0.022,0.188,0.039,0.292,0.043c0.363,0.015,0.635,0.149,0.739,0.354C149.507,61.896,149.323,62.048,149.137,62.203z
		 M155.715,57.521c-0.087,0.053-0.176,0.102-0.264,0.152c-0.053-0.146-0.099-0.291-0.161-0.443c0.034,0.001,0.066-0.006,0.1-0.003
		c0.203-0.14,0.467-0.085,0.682-0.187C155.994,57.226,155.796,57.335,155.715,57.521z M152.546,53.179
		c0.512,0.089,1.046,0.121,1.638-0.196c-0.292,0.427-0.432,0.628-0.57,0.829c0.825-0.094,1.339,0.938,2.258,0.521
		c0.257-0.115,0.544-0.687,0.786,0.013c0.164,0.475-0.16,0.562-0.576,0.641c-1.183,0.229-2.316,0.278-3.431-0.294
		c-0.092-0.047-0.201-0.107-0.315-0.168C152.46,54.101,152.534,53.656,152.546,53.179z M155.154,57.234
		c-0.708,0.584-1.425,1.178-2.154,1.778c-0.622,0.092-1.185-0.228-1.623-0.572c-0.919-0.726-0.894,0.862-1.534,0.415
		c-0.01-0.007-0.02-0.008-0.03-0.016c0.285-0.443,0.587-0.875,0.887-1.303c0.457,0.096,0.946,0.127,1.37,0.268
		C153.154,58.164,154.082,57.281,155.154,57.234z M145.599,53.771c0.996-0.87,2.192-1.508,3.229-2.337
		c0.717-0.573,1.381-1.181,1.79-1.907c0.251,0.367,0.452,0.719-0.306,1.057c-0.027,0.012,0.516,0.082,0.641,0.233
		c0.372,0.449,1.866,0.942,0.027,1.435c-0.235,0.062-0.414,0.217-0.37,0.408c0.036,0.155,0.286,0.411,0.381,0.391
		c0.273-0.059,0.542-0.043,0.812-0.004c-0.752,0.418-1.502,0.834-2.24,1.242c-0.016-0.006-0.031-0.019-0.047-0.021
		c-0.493-0.129-1.296-0.74-1.368-0.533c-0.414,1.184-1.704,0.625-2.455,1.087c0.191,0.634,0.925,0.634,1.521,0.763
		c-0.091,0.051-0.183,0.103-0.274,0.151c-0.798,0.437-1.776,0.972-2.364-0.045C144.108,54.876,145.063,54.24,145.599,53.771z
		 M103.815,72.689c0.074,0.997-0.038,1.803-0.224,2.027c-0.051,0.062-0.09,0.117-0.137,0.177l-2.133-0.062
		c-0.714-0.25-1.436-0.485-2.176-0.668C101.062,74.294,102.494,73.632,103.815,72.689z M84.322,30.397
		c0.001,0,0.002,0.001,0.003,0.001c0.442-0.293,0.878-0.146,1.314,0.009c-0.414-0.043-0.941,0.104-1.314-0.009h-0.001
		C84.323,30.398,84.322,30.397,84.322,30.397c-0.031-0.009-0.062-0.018-0.09-0.031c-0.564-0.484-0.913-1.096-1.235-2.255
		C83.36,29.28,83.702,29.929,84.322,30.397z M60.824,74.455c0.127-0.229,0.233-0.467,0.322-0.707
		c0.06,0.004,0.117,0.014,0.181,0.012c0.769-0.022,1.377,0.301,1.938,0.695H60.824z M61.859,66.567
		c1.159,0.417,2.276,0.86,3.481,1.101c1.847,0.369,3.89,1.062,6.169,2.215c-2.783,0.574-4.965,1.354-7.523,0.98
		c-1.455-0.212-2.957-0.158-4.449-0.337C60.799,69.462,61.653,68.186,61.859,66.567z M58.633,71.207
		c0.288,0.418,0.544,0.869,0.814,1.275c-1.363,0.857-2.699,1.792-4.873,0.839C56.07,72.686,57.464,72.003,58.633,71.207z"/>
</g>
</svg>
